<?xml version="1.0" encoding="utf-8"?>
<!-- Generator: Adobe Illustrator 24.0.1, SVG Export Plug-In . SVG Version: 6.00 Build 0)  -->
<svg version="1.1" id="Layer_1" xmlns="http://www.w3.org/2000/svg" xmlns:xlink="http://www.w3.org/1999/xlink" x="0px" y="0px"
	 width="602.9px" height="94.6px" viewBox="0 0 602.9 94.6" style="enable-background:new 0 0 602.9 94.6;" xml:space="preserve">
<style type="text/css">
	.st0{fill:#0083CA;}
	.st1{fill:#636466;}
</style>
<title>AZCT</title>
<g id="Layer_2_1_">
	<g id="AZCT">
		<path class="st0" d="M57.5,32.7c-0.4-8-0.2-16.1,0.6-24L56.3,8l-1.6,5.7C51.7,9.8,45.8,8,37.9,8c-11,0-19.2,3.5-25.1,9.5
			C4.6,25.6,0,37.3,0,53.7c0,10.5,2.2,20.8,6.7,27.8c4.9,7.8,12.6,13.1,27.1,13.1c15.2,0,23.6-7.2,26.6-21.3l-1.9-1.1
			c-3.6,14.7-12.6,16.9-17.5,16.9c-7.7,0-11.7-3.8-14.3-10.3c-3-7.3-4.3-16.5-4.3-27.6c0-13.8,3-26.9,7-33.8
			c3.3-5.5,6.2-7.2,10.7-7.2c11.2,0,14.4,14.7,15.6,23.1L57.5,32.7L57.5,32.7z M112.5,91.5l-3.7-0.3c-1.5-0.1-2.9-1.1-3.4-2.5
			c-3.4-10.4-11.6-41.5-15-55c-4.9,1.7-10,2.3-15.1,1.7c-0.2,2.1-0.6,4.1-1.2,6.1c-2,6.9-9.7,36.1-13,44.5c-1.6,4.1-3,5-8,5.6v1.6
			c3.8,0,6.7-0.4,9.7-0.4c3.5,0,6.7,0.4,10.1,0.4v-1.5c-7.6-0.6-8.2-2.2-8-4.4c0.1-1.8,1.6-7.9,4.2-17.7c1.8-0.1,3.9-0.1,6.3-0.1
			s4.2,0,6.8,0.1c1.3,5.9,3.2,12.8,4.6,19.5c0.1,1.8-0.1,2-4.9,2.6v1.6c6.3-0.1,10.9-0.4,16.7-0.4c4.9,0,10,0.2,13.8,0.4L112.5,91.5
			L112.5,91.5z M76.4,41.3c1.7,8.4,3.9,18.4,5.4,25.6c-2.1,0.1-4.1,0.2-6.1,0.2s-4.3-0.1-5.9-0.2C72.7,55.4,74.8,47.6,76.4,41.3z
			 M118.8,66.9c0,7.9-0.3,16.4-0.5,20.8c-0.1,2.6-0.7,3.2-3.4,3.5l-4,0.3v1.6c4.3,0,9.6-0.4,16-0.4c9.6,0,13.2,0.4,17,0.4v-1.6
			l-4.7-0.6c-2.4-0.4-3-1-3.2-2.6s-0.3-4.6-0.3-11.1v-19c0-8.7,0-17.3,0.3-19.7c0.1-1.4,0.8-1.9,2.2-1.9c2.5-0.2,5,1,6.4,3.1
			c1.2,1.7,2.4,6.7,2.4,12.9c0.1,3.9-0.4,7.7-1.4,11.5c-0.8,2.5-2.6,4.5-4.6,4.5c-0.9-0.1-1.7-0.3-2.5-0.6l-0.4,1.8
			c1.3,0.1,3.2,0.5,4.3,0.5c6.6,0,13.4-1.7,17.5-6c3.1-3.5,4.7-8,4.6-12.7c0-6.5-2-10.3-4.9-12.7c-3.2-2.6-7.5-4.3-18.7-4.3
			c-6.4,0-8.7,0.4-14.1,0.4s-13.4-0.4-14.7-0.4l-0.4,1.4l4.5,0.2c1.6,0.1,2.2,0.8,2.4,2.6c0.1,1.6,0.3,8.1,0.3,16.5L118.8,66.9
			L118.8,66.9z M169.4,73.1c0,8.5-0.1,13.8-0.3,15.8s-0.7,2.2-6.7,2.6v1.6c3.1,0,9.2-0.4,14.3-0.4s12.8,0.4,16.1,0.4l0.3-1.6
			c-6.1-0.5-6.1-0.8-6.3-2.6c-0.4-2-0.4-6.8-0.4-15.8V54.6c0-8.4,0.3-13.5,0.4-15.7c0.1-1.8,0.5-2.4,5.9-2.9l-0.1-1.5
			c-3,0-9.1,0.5-15.3,0.5c-5.9,0-11.3-0.5-14.3-0.5l-0.1,1.5c5.9,0.2,6.3,0.8,6.4,2.5s0.1,4.1,0.1,16V73.1z M226.4,49.3
			c0-5.9,0-10.2,0.1-12.7c6.4,0.1,8,1.4,9.7,4.1c1.2,1.8,3.3,7.3,4.2,13l1.4-1.1c-0.1-6.3,0.1-12.7,0.8-19
			c-3.9,1.3-9.7,1.3-19.1,1.3h-11c-7.4,0-15-0.4-18.1-1.3c-0.1,4.4-0.8,13.3-1.6,19.6l1.4,0.7c1.2-3.8,2.6-7.4,4.3-11
			c2-4.1,4.2-6.3,10.8-6.3c0.1,2.6,0.1,8,0.1,14.2v16c0,12.9-0.4,18.4-0.7,21.3c0,1.4-1.1,2.6-2.5,2.8c-2.4,0.3-3.9,0.5-5.5,0.6
			l0.3,1.6c4.2,0,10.1-0.4,15.8-0.4c5.1,0,15.1,0.4,18,0.4v-1.5c-2.5-0.2-3.8-0.2-6.2-0.6c-1.6-0.2-1.8-1.1-2-2.9
			c-0.1-2.2-0.4-8.7-0.4-20.9V49.3z M271.7,33.4c-17.1,0-28.1,11.4-28.1,31.1c0,18.5,10,29.8,27.8,29.8c17,0,27.2-12.1,27.2-31.1
			c0-15.8-9.1-29.8-26.7-29.8L271.7,33.4z M271.1,35.2c2.8,0,4.6,1.6,5.6,4.5c1.7,4.7,2.8,14.9,2.8,24.1c0,10.4-0.8,19.3-1.7,22.7
			c-1.2,4.4-3.5,5.9-6,5.9c-3,0-4.7-1.9-6.2-5.6s-2.9-14.1-2.9-25.6c0-9.2,1.2-17.1,2.8-21.5c1-2.9,2.9-4.5,5.5-4.5L271.1,35.2z
			 M342.4,73.6c-1.7,7.3-4.3,11-7.1,14c-2.5,2.8-6.6,3.3-12.4,3.3c-0.9,0-1.5-0.4-1.5-1.6c-0.3-2.6-0.3-9.2-0.3-19.5V57.6
			c0-8,0.3-15.4,0.7-18.9c0-1.2,0.9-2.2,2.1-2.3c0.1,0,0.2,0,0.2,0l5-0.4l-0.4-1.5c-5.8,0-10,0.5-15.8,0.5c-6.6,0-11.8-0.5-15.5-0.5
			v1.5l4.2,0.4c1.6,0.1,2.1,0.8,2.2,2.4c0.1,1.9,0.3,4.4,0.3,13.6v16.9c0,9.3-0.3,16.6-0.5,19.3c0,1.6-0.5,2.5-2.2,2.5l-5.3,0.5v1.6
			c3,0,10.9-0.4,17.2-0.4c5.7,0,12.1-0.1,17.2,0s9.2,0.2,11,0.5c0.5-5,1.1-12.9,2.1-19.3L342.4,73.6L342.4,73.6z M390.6,31.5
			c0-8.9,0-16,0.1-19.7c8-0.4,10.1,1.4,11.8,4.3c2.4,4.7,4.2,9.7,5.2,14.9l1.5-0.7c-0.3-7.7,0.9-19.9,1-21.6
			c-3.9,0.7-11.5,1.2-23.8,1.2h-12c-9.8,0-18-0.9-21.7-1.2c-0.3,5.8-1.2,19-2.2,23.2l1.5,0.4c1.3-3.2,2.8-8.6,6.3-14.6
			c2.5-4.3,3.6-5.9,12.5-5.9c0.1,3.9,0.1,12.6,0.1,22v21c0,19.1-0.3,28-0.4,32.6c0,2.7-2.1,3.3-4.8,3.5s-3.9,0.5-5.5,0.7l0.6,1.6
			c4.2,0,13.1-0.4,19-0.4c8,0,18.1,0.4,20.8,0.4l0.9-1.6c-3.3-0.1-3.6-0.7-7.3-0.9c-1.9-0.1-2.8-1-3-3.7c-0.3-3.5-0.6-13.5-0.6-31.6
			L390.6,31.5L390.6,31.5z M413.1,73.1c0,8.5-0.1,13.8-0.3,15.8s-0.6,2.2-6.7,2.6v1.6c3.1,0,9.2-0.4,14.3-0.4s12.8,0.4,16,0.4
			l0.3-1.6c-6-0.5-6-0.8-6.3-2.6c-0.4-2-0.4-6.8-0.4-15.8V54.6c0-8.4,0.3-13.5,0.4-15.7c0.1-1.8,0.5-2.4,5.9-2.9l-0.1-1.5
			c-3,0-9.1,0.5-15.3,0.5c-5.9,0-11.3-0.5-14.3-0.5l-0.1,1.5c5.9,0.2,6.3,0.8,6.4,2.5s0.1,4.1,0.1,16L413.1,73.1L413.1,73.1z
			 M472.9,91.8c2.6-11.1,7.9-31.3,13.1-51.4h0.1c-0.2,21.5-0.9,44.9-1.2,48.5c-0.1,1.8-1.1,2.4-5.4,2.6l-0.4,1.6
			c7.5-0.1,10.5-0.4,14.5-0.4c7.5,0,14.1,0.4,16.2,0.4v-1.6l-4.3-0.5c-1.7-0.2-2.2-0.7-2.4-2.8c-0.4-4.4-0.6-11.2-0.6-37.4
			c0-6.7,0.1-10.6,0.3-12.2s0.4-2.2,1.3-2.2s2.9-0.2,5.4-0.5l-0.3-1.5c-3.5,0-9.1,0.5-15,0.5c-5.1,0-7.2,0-8.7-0.1
			c-1.5,5.6-6.7,23.8-9.5,33.2c-4-11.8-10.4-27.5-12-33.2c-1.3,0-3.4,0.1-10.6,0.1c-4.7,0-8-0.5-14.5-0.5l-0.1,1.5l5.1,0.5
			c1.1,0.1,2,0.8,2.4,1.8c0.1,0.5,0.2,1,0.1,1.4c2,20.8-0.8,35.9-1.2,43.5c-0.3,5.3-1.6,7.3-4.5,7.8c-0.9-0.1-2,0.3-3.8,0.5v1.6
			c2.8,0,6-0.4,10.4-0.4c3.5,0,6.5,0.4,10.7,0.4v-1.6l-4.7-0.6c-3.8-0.5-4.3-2.3-4.5-8.1c-0.1-7.3-0.5-22.2-0.5-42.3h0.8
			c4.7,15.2,12.8,41.8,15.9,52.6L472.9,91.8L472.9,91.8z M511.4,36.1l4.5,0.4c1.6,0.1,2,0.5,2.1,1.9c0.4,4.9,0.5,9.9,0.4,14.8v14
			c0,8.1-0.3,19-0.7,21.9c-0.1,1.7-1.2,1.9-3.2,2.3l-4.4,0.2v1.6c4,0,10.1-0.4,15.9-0.4h13.3c6-0.1,12,0.1,18,0.6
			c0.8-4,2.4-14.1,2.8-17.7l-1.2-0.6c-1.3,4.1-2.6,8.1-6,11.8c-3,3.3-8,4-14.2,4c-2.4,0-2.9-0.5-3-2c-0.3-3.1-0.4-13.4-0.4-20.4
			v-4.1c1.2-0.1,2.8-0.1,3.8-0.1c6.2,0,7.6,6.6,8,10.5l1.6,0.1c-0.3-7.5-0.2-15,0.4-22.5h-1.5c-0.9,6.6-4.3,9.6-8.2,9.6h-4.2v-9
			c0-6.1,0.3-12,0.5-15c0-0.8,0.3-1.1,1.6-1.1h1.3c6.5,0,10.3,0.8,12.6,5.6c1.4,2.9,2.4,6,2.9,9.2l1.5-0.6c0-4,0.1-13.8,0.5-17.1
			c-2.1,0.6-6.6,1-11.6,1h-18.2c-4.9,0-11.2-0.5-15.1-0.5V36.1L511.4,36.1z M562.1,73.6c0,9.1-0.1,13.3-0.7,17.9
			c2.5,0.5,3.8,0.8,5.4,1.2c4.3,1,8.7,1.5,13.2,1.6c8.5,0,14.6-2.8,18-6.4c3.2-3.4,4.9-7.9,4.9-12.6c0.2-5.4-2.6-10.6-7.2-13.4
			c-5-3.2-10.5-6.7-15.9-10c-3-1.7-4.9-5-4.7-8.5c-0.2-4.3,3-7.9,7.3-8.1c0.2,0,0.4,0,0.6,0c8.9,0,13.5,10.2,14.6,18.1l1.5-0.4
			c-0.4-6.5,0-13.1,1.1-19.5l-1.3-0.5l-2.2,4.3c-3.8-2.6-8.3-3.9-12.9-3.8c-7.2,0-12.4,2-15.5,4.8c-3.7,3.1-5.9,7.8-5.9,13.6
			c0,6.1,3.2,11.7,8.4,14.8c3.8,2.4,9.1,5.7,12.9,8.3s5.9,4.4,5.9,9c0,4.1-2.4,8.5-9.5,8.5c-8.2,0-15.9-6.8-16.2-19.4L562.1,73.6
			L562.1,73.6z"/>
		<path class="st1" d="M137.7,24.7h4.4l2.5-5.9h11.6l2.5,5.9h4.5L152.5,0.1h-4L137.7,24.7z M146.2,15l4.2-9.8l4.2,9.8H146.2z
			 M171.2,24.7h4.3v-8.5h5.4l6,8.5h5.1l-6.6-9.3c3.4-1,5.8-3.4,5.8-7.4V7.9c0.1-2-0.7-3.8-2-5.3c-1.9-1.7-4.4-2.6-7-2.4h-10.9
			L171.2,24.7L171.2,24.7z M175.5,12.3V4.1h6.3c3.2,0,5.1,1.4,5.1,4v0.1c0,2.5-2,4.1-5,4.1L175.5,12.3z M200.5,24.7h4.3V0.2h-4.3
			V24.7z M214.3,24.7h20v-3.8H220l14.4-17.5V0.2h-19.6V4h14l-14.5,17.5L214.3,24.7L214.3,24.7z M253.9,25.1
			c6.9,0.2,12.6-5.3,12.8-12.2c0-0.1,0-0.3,0-0.4v-0.1c-0.2-7.1-6.1-12.6-13.2-12.4c-6.8,0.2-12.2,5.7-12.4,12.5v0.1
			c-0.1,6.8,5.4,12.5,12.2,12.6c0.2,0,0.4,0,0.6,0H253.9z M254,21.1c-4.6,0-8.3-3.8-8.3-8.4c0-0.1,0-0.2,0-0.3v-0.1
			c0.1-4.7,3.5-8.6,8.4-8.6c4.6,0,8.3,3.8,8.3,8.4c0,0.1,0,0.2,0,0.3v0.1c0,4.7-3.4,8.6-8.2,8.6L254,21.1z M275.7,24.7h4.3V7.3
			l13.5,17.4h3.6V0.2h-4.2v16.9l-13-16.9h-4L275.7,24.7L275.7,24.7z M305.1,24.7h4.4l2.5-5.9h11.6l2.5,5.9h4.5L319.9,0.1h-4
			L305.1,24.7L305.1,24.7z M313.5,14.9l4.2-9.8L322,15L313.5,14.9z"/>
	</g>
</g>
</svg>
