<?xml version="1.0" encoding="utf-8"?>
<!-- Generator: Adobe Illustrator 24.0.1, SVG Export Plug-In . SVG Version: 6.00 Build 0)  -->
<svg version="1.1" id="Layer_1" xmlns="http://www.w3.org/2000/svg" xmlns:xlink="http://www.w3.org/1999/xlink" x="0px" y="0px"
	 width="602.9px" height="82.7px" viewBox="0 0 602.9 82.7" style="enable-background:new 0 0 602.9 82.7;" xml:space="preserve">
<style type="text/css">
	.st0{fill:#0083CA;}
	.st1{fill:#636466;}
</style>
<title>CPBJ</title>
<g id="Layer_2_1_">
	<g id="CPBJ">
		<path class="st0" d="M329.3,82.7c6.8,0,12.2-2.2,16.1-6.3c4.2-4.4,6.3-10.7,6.3-19.4V0h-18.2v55.8c0,6.2-2.7,8.9-6.3,8.9
			c-3.1,0-5.3-1.7-7.4-4.1l-8.1,14.7C316.3,80,322.6,82.7,329.3,82.7z M378.2,82.6c12.3,0,20.6-10.1,20.6-27.1v-2.3
			c0-16.9-8.2-27-20.5-27s-20.6,10-20.6,27v2.3C357.7,72.5,365.9,82.5,378.2,82.6L378.2,82.6z M378.3,70.9c-4.5,0-7.6-4.7-7.6-15.8
			v-1.6c0-11.1,3.1-15.7,7.5-15.7s7.5,4.6,7.5,15.8v1.6C385.7,66.3,382.7,70.9,378.3,70.9z M421.9,82.5c11,0,18.6-6.1,18.6-20V27.2
			h-12.7v36.1c0,5.1-2.3,7.5-5.7,7.5s-5.7-2.4-5.7-7.5v-36h-12.9v35.4C403.5,76.3,411,82.5,421.9,82.5L421.9,82.5z M446.4,81.5h12.7
			V64.2h3l7.3,17.3h14.1l-9.2-20.7c4.7-2.8,8-7.4,8-15.2v-0.5c0-5.7-1.6-9.9-4.6-12.9c-3.3-3.3-8.5-5-14.8-5h-16.5L446.4,81.5
			L446.4,81.5z M459.1,53.8V38.4h3.3c4.3,0,7,2.4,7,7.5v0.3c0,4.8-2.5,7.6-6.9,7.6L459.1,53.8z M487.1,81.5h12.4v-27l13.9,27h11.5
			V27.2h-12.4V53l-13.3-25.8h-12.1L487.1,81.5L487.1,81.5z M528.1,81.5h12.7l2.3-9.9h12.6l2.3,9.9h13.1L556.5,27h-13.8L528.1,81.5
			L528.1,81.5z M545.6,61.2l3.8-16.6l3.8,16.6L545.6,61.2z M574.3,81.6h28.6V69.7h-15.8V27.2h-12.8V81.6z"/>
		<path class="st0" d="M0,81.6h23.7c17.9,0,28-8.9,28-22.7V58c0-10.3-5.8-15.5-12.8-18.5c6.8-3.3,11-10.4,10.7-17.9V21
			c0-6.1-1.8-10.6-5-14c-4.7-4.9-12.2-7-21-7H0V81.6z M31.8,24.9c0,5.1-3.4,8.2-9,8.2h-5V16.8h5.2c5.4,0,8.8,2.7,8.8,8L31.8,24.9
			L31.8,24.9z M33.5,56.3v0.1c0,5.1-3.7,8.4-9.4,8.4h-6.2V47.9H24C30,47.9,33.5,51.3,33.5,56.3L33.5,56.3z M74.5,82.5
			c11,0,18.6-6.1,18.6-20V27.2H80.3v36.1c0,5.1-2.3,7.5-5.7,7.5S69,68.3,69,63.2v-36H56.1v35.4C56.1,76.3,63.6,82.5,74.5,82.5
			L74.5,82.5z M113.6,82.2c9.9,0,17.4-6.7,17.4-16.5v-0.3c0-8-5-12.4-12.9-16.6c-6.2-3.4-7.8-4.9-7.8-7.1v-0.1
			c0-2.1,1.8-3.7,4.4-3.7c4,0,7.5,2.5,9.8,4.5l6.5-10c-4.4-4-10.2-6.1-16.1-6.1c-10.4,0-17.5,6.5-17.5,16.2V43
			c0,8.4,5.4,12.7,14.1,17.2c5,2.7,6.5,4.2,6.5,6.3c0,2.3-1.6,4.3-4.9,4.3c-4.2,0-8.3-2.9-11.7-5.7l-6.3,10.3
			C100.3,79.8,106.9,82.3,113.6,82.2L113.6,82.2z M135.6,81.5h12.7V27.2h-12.8L135.6,81.5L135.6,81.5z M154.8,81.5h12.4v-27l13.9,27
			h11.5V27.2h-12.5V53l-13.3-25.8h-12.1L154.8,81.5L154.8,81.5z M198.8,81.5h30.7V69.9h-17.9V59.8h15.8V48.5h-15.8v-9.7h17.6V27.2
			h-30.4L198.8,81.5L198.8,81.5z M249.2,82.2c9.9,0,17.4-6.7,17.4-16.5v-0.3c0-8-5-12.4-12.9-16.6c-6.2-3.4-7.7-4.8-7.7-7.1v-0.1
			c0-2.1,1.8-3.7,4.4-3.7c4,0,7.5,2.5,9.8,4.5l6.5-10c-4.4-4-10.2-6.1-16.1-6.1c-10.4,0-17.5,6.5-17.5,16.2V43
			c0,8.4,5.4,12.7,14.1,17.2c5,2.7,6.5,4.2,6.5,6.3c0,2.3-1.6,4.3-4.9,4.3c-4.2,0-8.3-2.9-11.6-5.7l-6.3,10.3
			C235.9,79.8,242.5,82.3,249.2,82.2L249.2,82.2z M285.1,82.2c9.9,0,17.4-6.7,17.4-16.5v-0.3c0-8-5-12.4-12.9-16.6
			c-6.2-3.4-7.8-4.9-7.8-7.1v-0.1c0-2.1,1.8-3.7,4.4-3.7c4,0,7.5,2.5,9.8,4.5l6.5-10c-4.4-4-10.2-6.1-16.1-6.1
			C276,26.5,269,33,269,42.7V43c0,8.4,5.4,12.7,14.1,17.2c5,2.7,6.5,4.2,6.5,6.3c0,2.3-1.6,4.3-4.9,4.3c-4.2,0-8.3-2.9-11.6-5.7
			l-6.3,10.3C271.9,79.8,278.4,82.3,285.1,82.2L285.1,82.2z"/>
		<path class="st1" d="M120.7,19.5c2.4,0,4.7-1.1,6.2-3l-1.7-1.9c-1.1,1.3-2.7,2.1-4.4,2.2c-2.9,0-5-2.7-5-6v-0.1
			c0-3.3,2.1-5.9,5-5.9c1.6,0.1,3.2,0.8,4.2,2.1l1.7-2.2c-1.5-1.7-3.7-2.7-6-2.6c-4.5,0-7.7,3.9-7.7,8.7l0,0
			C113,15.6,116.3,19.4,120.7,19.5L120.7,19.5z M130.6,19.2H142v-2.6h-8.7V12h7.6V9.3h-7.6V4.9h8.6V2.3h-11.3
			C130.6,2.3,130.6,19.2,130.6,19.2z M146.4,19.2h2.6v-12l8.4,12h2.2V2.3H157V14l-8.1-11.7h-2.5C146.4,2.3,146.4,19.2,146.4,19.2z
			 M168.1,19.2h2.7V5h4.8V2.3h-12.3V5h4.8C168.1,5,168.1,19.2,168.1,19.2z M179.3,19.2h2.7v-5.9h3.4l3.7,5.9h3.2l-4.1-6.4
			c2.2-0.7,3.7-2.8,3.6-5.1l0,0c0.1-1.3-0.4-2.6-1.2-3.7c-1.2-1.2-2.7-1.8-4.4-1.7h-6.8L179.3,19.2L179.3,19.2z M181.9,10.7V5h3.9
			c2,0,3.1,1,3.1,2.8l0,0c0,1.7-1.2,2.8-3.1,2.8L181.9,10.7z M195.2,19.2h2.7l1.6-4.1h7.2l1.5,4.1h2.8l-6.7-17h-2.5L195.2,19.2
			L195.2,19.2z M200.5,12.5l2.6-6.8l2.6,6.8H200.5z M214.6,19.2h10.6v-2.7h-8V2.3h-2.7L214.6,19.2L214.6,19.2z M236.7,19.2h2.7v-5.4
			h3c3.3,0,6.1-2,6.1-5.8V7.9c0-3.4-2.2-5.6-5.8-5.6h-6L236.7,19.2L236.7,19.2z M239.4,11.1V5h3.1c2,0,3.3,1,3.3,3l0,0
			c0,1.7-1.3,3-3,3c-0.1,0-0.2,0-0.3,0L239.4,11.1z M252.2,19.2h11.4v-2.6h-8.7V12h7.6V9.3h-7.6V4.9h8.6V2.3h-11.3
			C252.2,2.3,252.2,19.2,252.2,19.2z M268,19.2h2.6v-12l8.4,12h2.2V2.3h-2.6V14l-8.1-11.7H268L268,19.2L268,19.2z M286.3,19.2h2.7
			v-12l8.4,12h2.2V2.3H297V14l-8.2-11.7h-2.5C286.3,2.3,286.3,19.2,286.3,19.2z"/>
	</g>
</g>
</svg>
