<?xml version="1.0" encoding="utf-8"?>
<!-- Generator: Adobe Illustrator 24.0.1, SVG Export Plug-In . SVG Version: 6.00 Build 0)  -->
<svg version="1.1" id="Layer_1" xmlns="http://www.w3.org/2000/svg" xmlns:xlink="http://www.w3.org/1999/xlink" x="0px" y="0px"
	 width="602.9px" height="84.1px" viewBox="0 0 602.9 84.1" style="enable-background:new 0 0 602.9 84.1;" xml:space="preserve">
<style type="text/css">
	.st0{fill:#636466;}
	.st1{fill:#0083CA;}
</style>
<title>IBR</title>
<g id="Layer_2_1_">
	<g id="IBR">
		<path class="st0" d="M345.2,83h15.3V66.8h2.5l7.8,16.2H388l-9.9-19.6c2.5-1.5,4.7-3.7,6.2-6.2c1.7-3.1,2.5-6.5,2.3-10v-0.5
			c0.1-2.6-0.3-5.1-1.1-7.5c-0.7-2.1-1.9-4-3.4-5.7c-1.8-1.9-4-3.4-6.5-4.3c-3.2-1.1-6.5-1.6-9.8-1.5h-20.5V83z M360.6,54.3V42h5
			c1.5-0.1,2.9,0.5,4,1.5c1.1,1.2,1.7,2.8,1.5,4.5v0.4c0.1,1.6-0.4,3.2-1.5,4.5c-1.1,1-2.6,1.6-4.1,1.5L360.6,54.3z M389.4,83h36.9
			V68.4h-21.6v-6.5h19.7V48.5h-19.7v-6.3h21.3V27.6h-36.5V83z M443.2,83.3h15.2l16.8-55.7h-16.5L451,58.4l-7.8-30.7h-16.8
			L443.2,83.3L443.2,83.3z M476.5,83h15.3V27.6h-15.3V83z M496.1,83H533V68.4h-21.6v-6.5h19.7V48.5h-19.7v-6.3h21.3V27.6h-36.5
			L496.1,83L496.1,83z M547.3,83.3h14.1l6.9-26l6.9,26h14.1l13.6-55.6L587,27.6l-5.5,27.6L575,27.5h-13.1l-6.5,27.7l-5.5-27.6h-16.1
			L547.3,83.3L547.3,83.3z"/>
		<path class="st1" d="M0,83h32.1c4,0.1,8-0.5,11.8-1.7c3.1-1,6-2.7,8.4-4.9c2.2-2,3.9-4.6,5-7.3c1.2-2.9,1.7-6.1,1.7-9.2v-0.5
			c0-2.4-0.3-4.8-1-7.2c-0.6-2-1.5-3.8-2.7-5.5c-1.2-1.6-2.6-2.9-4.2-4c-1.6-1.1-3.4-2-5.3-2.7c3.3-1.5,6.1-4,8.1-7
			c2.2-3.4,3.3-7.5,3.2-11.5v-0.6c0.1-2.7-0.3-5.3-1.2-7.9c-0.7-2.1-1.8-4-3.2-5.7C48.5,2.4,41.7,0,32.6,0H0V83z M35.7,26.7
			c0,4-2.4,6-7.2,6h-7.3V20.4h7.3c4.8,0,7.2,2.1,7.2,6.2V26.7z M37.1,56.2c0.1,1.7-0.6,3.4-1.9,4.6c-1.6,1.3-3.6,1.9-5.6,1.8h-8.4
			V49.7h8.4c2-0.2,4,0.5,5.6,1.8c1.3,1.2,2,2.9,1.9,4.6V56.2z M91.7,82.7c2.6-0.8,4.9-2.3,6.8-4.2c2-2.1,3.6-4.6,4.5-7.3
			c1.1-3.5,1.7-7.2,1.6-10.8V27.6H89v33.4c0,2.7-0.6,4.7-1.7,5.9c-1.1,1.2-2.7,1.9-4.3,1.8c-1.6,0.1-3.2-0.6-4.3-1.8
			c-1.1-1.3-1.7-3.4-1.7-6.1V27.6H61.5v33c-0.1,3.6,0.4,7.2,1.5,10.6c0.9,2.7,2.4,5.2,4.4,7.3c1.9,1.9,4.2,3.3,6.8,4.2
			c2.8,0.9,5.8,1.4,8.8,1.3C85.9,84.1,88.9,83.7,91.7,82.7L91.7,82.7z M134.9,82.6c2.3-0.8,4.3-2,6.1-3.6c1.7-1.6,3.1-3.6,4-5.7
			c1-2.4,1.5-5,1.4-7.5v-0.2c0.1-2.3-0.4-4.5-1.3-6.6c-0.8-1.8-2.1-3.5-3.6-4.8c-1.6-1.4-3.5-2.6-5.4-3.5c-2.3-1-4.6-1.9-7-2.7
			c-1.7-0.6-3.4-1.3-5-2.2c-0.8-0.4-1.3-1.2-1.3-2.1v-0.2c0-0.7,0.3-1.3,0.8-1.7c0.7-0.5,1.7-0.8,2.6-0.7c2.2,0,4.5,0.5,6.5,1.4
			c2.2,0.9,4.2,2.1,6,3.6l7.2-12.4c-2.6-2.3-5.7-4.1-9-5.3c-3.4-1.1-6.9-1.6-10.4-1.5c-2.7,0-5.5,0.4-8.1,1.3
			c-2.2,0.8-4.3,2.1-6,3.7c-1.6,1.6-2.9,3.6-3.8,5.7c-0.9,2.3-1.3,4.7-1.3,7.2V45c-0.1,2.3,0.4,4.6,1.3,6.7c0.9,1.9,2.2,3.5,3.7,4.8
			c1.7,1.4,3.6,2.6,5.6,3.5c2.1,0.9,4.5,1.8,7,2.7c1.6,0.5,3.2,1.1,4.7,2c0.8,0.4,1.3,1.2,1.3,2.1V67c0,0.7-0.3,1.4-0.9,1.9
			c-0.9,0.6-1.9,0.8-2.9,0.7c-2.5,0-5-0.6-7.4-1.6c-2.7-1.1-5.2-2.7-7.4-4.6l-7.4,12.3c2.9,2.7,6.3,4.8,10.1,6.2
			c3.8,1.3,7.9,2,11.9,2C129.6,83.9,132.3,83.5,134.9,82.6L134.9,82.6z M149.4,82.9h15.3V27.6h-15.3V82.9L149.4,82.9z M169,83h15
			V58.4L199,83h13.8V27.6h-15V51l-14.3-23.4H169V83z M217,83h36.9V68.4h-21.6v-6.5h19.7V48.5h-19.7v-6.3h21.3V27.6H217V83z
			 M283.6,82.6c2.3-0.8,4.4-2,6.1-3.6c1.7-1.6,3.1-3.5,4-5.7c1-2.4,1.5-4.9,1.4-7.5v-0.2c0.1-2.3-0.4-4.5-1.3-6.6
			c-0.8-1.8-2.1-3.5-3.6-4.8c-1.6-1.4-3.5-2.6-5.5-3.5c-2.3-1-4.6-1.9-7-2.7c-1.7-0.6-3.4-1.3-5-2.2c-0.8-0.4-1.3-1.2-1.4-2.1v-0.2
			c0-0.7,0.3-1.3,0.9-1.7c0.7-0.5,1.7-0.8,2.6-0.7c2.2,0,4.4,0.5,6.5,1.4c2.2,0.9,4.2,2.1,6,3.6l7.2-12.4c-2.6-2.3-5.7-4.1-9-5.3
			c-3.4-1.1-6.9-1.6-10.5-1.5c-2.7,0-5.5,0.4-8,1.3c-2.2,0.8-4.3,2.1-6,3.7c-1.6,1.6-2.9,3.6-3.8,5.7c-0.9,2.3-1.4,4.7-1.4,7.1V45
			c-0.1,2.3,0.4,4.6,1.4,6.7c0.9,1.9,2.2,3.5,3.7,4.8c1.7,1.4,3.6,2.6,5.6,3.5c2.1,0.9,4.5,1.8,7,2.7c1.6,0.5,3.2,1.1,4.7,2
			c0.8,0.4,1.3,1.2,1.3,2.1V67c0,0.7-0.3,1.4-0.9,1.9c-0.9,0.6-1.9,0.8-3,0.7c-2.5,0-5-0.6-7.4-1.6c-2.7-1.1-5.2-2.7-7.5-4.5
			l-7.4,12.3c2.9,2.7,6.4,4.8,10.1,6.2c3.8,1.3,7.9,2,11.9,2C278.4,83.9,281.1,83.5,283.6,82.6L283.6,82.6z M323.8,82.6
			c2.3-0.8,4.4-2,6.2-3.6c1.7-1.6,3.1-3.5,4-5.7c1-2.4,1.5-4.9,1.4-7.5v-0.2c0.1-2.3-0.4-4.5-1.3-6.6c-0.8-1.8-2.1-3.5-3.6-4.8
			c-1.7-1.5-3.5-2.6-5.6-3.5c-2.3-1-4.6-1.9-7-2.7c-1.7-0.6-3.4-1.3-5-2.2c-0.8-0.4-1.3-1.2-1.3-2.1v-0.2c0-0.7,0.3-1.3,0.9-1.7
			c0.7-0.5,1.7-0.8,2.6-0.7c2.2,0,4.4,0.5,6.5,1.4c2.2,0.9,4.2,2.1,6,3.6l7.2-12.4c-2.6-2.3-5.7-4.1-9-5.3
			c-3.4-1.1-6.9-1.6-10.5-1.5c-2.7,0-5.4,0.4-8,1.3c-2.2,0.8-4.3,2.1-6,3.7c-1.6,1.6-2.9,3.6-3.8,5.7c-0.9,2.3-1.3,4.7-1.3,7.2V45
			c-0.1,2.3,0.4,4.6,1.4,6.7c0.9,1.9,2.2,3.5,3.7,4.8c1.7,1.4,3.6,2.6,5.6,3.5c2.1,0.9,4.5,1.8,7,2.7c1.7,0.5,3.2,1.1,4.7,2
			c0.8,0.4,1.3,1.2,1.3,2.1V67c0,0.7-0.3,1.4-0.9,1.9c-0.9,0.6-1.9,0.8-3,0.7c-2.5,0-5-0.6-7.4-1.6c-2.7-1.1-5.2-2.7-7.4-4.6
			l-7.4,12.3c2.9,2.7,6.4,4.8,10.1,6.2c3.8,1.3,7.9,2,11.9,2C318.6,83.9,321.3,83.5,323.8,82.6L323.8,82.6z"/>
		<path class="st0" d="M61.5,22.6h2.7v-17h-2.7V22.6z M69.3,22.6H75c4.8,0,8.1-3.7,8.1-8.5v-0.1c0-4.8-3.3-8.4-8.1-8.4h-5.7
			L69.3,22.6L69.3,22.6z M75,8.4c3.2,0,5.3,2.4,5.3,5.8v0.1c0,3.3-2.1,5.7-5.3,5.7h-3V8.4H75z M85.2,22.6H88l1.6-4.1h7.2l1.6,4.1
			h2.8L94.4,5.6h-2.5L85.2,22.6z M90.5,15.9l2.6-6.8l2.6,6.8H90.5z M104.7,22.6h2.7v-7.2h7.3v7.2h2.7v-17h-2.7v7.1h-7.3v-7h-2.7
			V22.6L104.7,22.6z M129.7,22.9c4.7,0,8-4,8-8.8v-0.1c0-4.8-3.3-8.7-8-8.7s-8,4-8,8.8v0.1C121.7,19,125,22.9,129.7,22.9z
			 M129.7,20.2c-3,0-5.2-2.7-5.2-6v-0.1c0-3.3,2.1-6,5.1-6c3,0,5.2,2.7,5.2,6v0.1C134.9,17.5,132.8,20.2,129.7,20.2z"/>
	</g>
</g>
</svg>
