<?xml version="1.0" encoding="utf-8"?>
<!-- Generator: Adobe Illustrator 24.0.1, SVG Export Plug-In . SVG Version: 6.00 Build 0)  -->
<svg version="1.1" id="Layer_1" xmlns="http://www.w3.org/2000/svg" xmlns:xlink="http://www.w3.org/1999/xlink" x="0px" y="0px"
	 width="602.9px" height="89.8px" viewBox="0 0 602.9 89.8" style="enable-background:new 0 0 602.9 89.8;" xml:space="preserve">
<style type="text/css">
	.st0{fill:#0083CA;}
	.st1{fill:none;stroke:#0083CA;stroke-width:2.95;}
	.st2{fill:#636466;}
</style>
<title>LVB</title>
<g id="Layer_2_1_">
	<g id="LVB">
		<path class="st0" d="M173,88.6h32.5c18.4,0,28.9-9.4,28.9-24.6v-0.5c0-11.7-5.9-17.5-14.3-21c6.5-3.3,11.6-9.4,11.6-19.5v-0.5
			c0-6.3-1.9-11.1-5.1-14.7C222,2.5,214.8,0,205.4,0H173V88.6z M211.8,27.3c0,5.4-3.6,8.2-9.7,8.2h-9.6V19h9.9c6,0,9.4,2.9,9.4,8.2
			V27.3L211.8,27.3z M214.3,60.9V61c0,5.4-3.7,8.6-9.9,8.6h-11.8V52.3h11.7C210.8,52.3,214.3,55.7,214.3,60.9L214.3,60.9z
			 M267.3,89.8c16.8,0,28.1-9.1,28.1-29.8V17h-17.9v43.7c0,8.5-3.9,12.4-10.1,12.4s-10.1-4.1-10.1-12.7V17h-17.8v43.2
			C239.5,80.6,250.5,89.8,267.3,89.8L267.3,89.8z M325.5,89.6c14.7,0,25-8.6,25-22.5v-0.2c0-12.2-8.1-17.7-21.2-22.1
			c-8.7-3.4-10.9-5-10.9-8.2v-0.1c0-2.7,2.3-4.7,6.3-4.7c5.6,0,11.3,2.8,16,6.5l8.9-13.7c-6.8-5.8-15.6-8.9-24.6-8.7
			c-15,0-24.6,9.1-24.6,22.1v0.3c0,13,9.1,17.9,22.1,22.5c8.1,3,10.1,4.7,10.1,7.6v0.1c0,3.1-2.5,5.2-7.2,5.2
			c-6.7,0-13.1-3.3-18.7-8.1l-9.4,13.4C305.1,86,315.1,89.7,325.5,89.6L325.5,89.6z M356,88.6h17.7V17H356L356,88.6L356,88.6z
			 M382.1,88.6h17.4V51.1l23.8,37.5H439V17h-17.4v36l-22.9-36h-16.6L382.1,88.6L382.1,88.6z M447.4,88.6h47.8V72.4h-30.3V60.2h26.9
			V45h-26.9V33.2h29.9V17h-47.4L447.4,88.6L447.4,88.6z M524.6,89.6c14.7,0,25.1-8.6,25.1-22.5v-0.2c0-12.2-8.2-17.7-21.2-22.1
			c-8.8-3.4-10.9-5-10.9-8.2v-0.1c0-2.7,2.3-4.7,6.3-4.7c5.6,0,11.3,2.8,16,6.5l8.9-13.7c-6.8-5.8-15.6-8.9-24.6-8.7
			c-15,0-24.6,9.1-24.6,22.1v0.3c0,13,9.1,17.9,22.1,22.5c8,3,10.1,4.7,10.1,7.6v0.1c0,3.1-2.5,5.2-7.2,5.2
			c-6.7,0-13.1-3.3-18.7-8.1l-9.4,13.4C504.3,86,514.3,89.7,524.6,89.6L524.6,89.6z M577.8,89.6c14.7,0,25-8.6,25-22.5v-0.2
			c0-12.2-8.2-17.7-21.2-22.1c-8.7-3.4-10.9-5-10.9-8.2v-0.1c0-2.7,2.3-4.7,6.3-4.7c5.6,0,11.3,2.8,16,6.5l8.9-13.7
			c-6.8-5.8-15.6-8.9-24.6-8.7c-15,0-24.6,9.1-24.6,22.1v0.3c0,13,9.1,17.9,22.1,22.5c8.1,3,10.1,4.7,10.1,7.6v0.1
			c0,3.1-2.5,5.2-7.2,5.2c-6.7,0-13.1-3.3-18.7-8.1l-9.4,13.4C557.5,86,567.5,89.7,577.8,89.6L577.8,89.6z"/>
		<path class="st1" d="M0,1.5h162.4 M0,87.1h162.4"/>
		<path class="st2" d="M12.3,76.2h2.5l10.9-25.5h-3.1l-9,21.8l-9-21.8H1.4L12.3,76.2z M28,76h2.9l3-6.7h13.8l3,6.7h3.1L42.2,50.6
			h-2.7L28,76z M35,66.7l5.8-12.8l5.7,12.8H35z M61.8,76h17.1v-2.6H64.7V50.8h-2.8V76z M87.3,76h17.1v-2.6H90.2V50.8h-2.9V76z
			 M112.8,76h18.4v-2.6h-15.6v-8.8h13.8V62h-13.8v-8.6h15.4v-2.6h-18.3C112.8,50.8,112.8,76,112.8,76z M148.1,76h2.9V66l10.5-15.2
			h-3.3l-8.6,12.6L141,50.8h-3.5L148,66.1L148.1,76L148.1,76z"/>
		<path class="st2" d="M3.6,37.6h17.1v-2.6H6.4V12.3H3.6V37.6z M30.4,37.6h18.5V35H33.2v-8.9H47v-2.6H33.2v-8.6h15.4v-2.6H30.4V37.6
			z M59,37.6h2.9V26.2h14.6v11.4h2.8V12.3h-2.8v11.2H61.8V12.3H59L59,37.6L59,37.6z M91.1,37.6H94V12.3h-2.9V37.6z M117.5,38
			c3.7,0,7.4-1.4,10.2-3.9V24.1h-10.4v2.6h7.7v6.3c-2.1,1.6-4.6,2.5-7.3,2.5c-6.1,0-10-4.5-10-10.5v-0.1c0-5.6,4-10.4,9.6-10.4
			c2.8-0.1,5.6,0.9,7.7,2.9l1.8-2.2c-2.6-2.3-6-3.5-9.4-3.4c-7.6,0-12.7,6.1-12.7,13.1V25C104.8,32.2,109.7,38,117.5,38L117.5,38z
			 M138.5,37.6h2.9V26.2H156v11.4h2.9V12.3H156v11.2h-14.6V12.3h-2.9L138.5,37.6L138.5,37.6z"/>
	</g>
</g>
</svg>
