<?xml version="1.0" encoding="utf-8"?>
<!-- Generator: Adobe Illustrator 24.0.1, SVG Export Plug-In . SVG Version: 6.00 Build 0)  -->
<svg version="1.1" id="Layer_1" xmlns="http://www.w3.org/2000/svg" xmlns:xlink="http://www.w3.org/1999/xlink" x="0px" y="0px"
	 width="602.9px" height="85.9px" viewBox="0 0 602.9 85.9" style="enable-background:new 0 0 602.9 85.9;" xml:space="preserve">
<style type="text/css">
	.st0{fill:#636466;}
	.st1{fill:#0083CA;}
</style>
<title>LIBN</title>
<g id="Layer_2_1_">
	<g id="LIBN">
		<path class="st0" d="M67.4,17.6h12v-2.7h-9V0.5h-3V17.6z M93.4,17.9c4.8,0.1,8.9-3.7,9-8.6c0-0.1,0-0.2,0-0.3V9
			c-0.5-4.9-5-8.5-9.9-8c-4.2,0.5-7.5,3.8-8,8l0,0c-0.1,4.8,3.8,8.7,8.6,8.8C93.1,17.9,93.3,17.9,93.4,17.9L93.4,17.9z M93.4,15.1
			c-3.2,0-5.8-2.6-5.8-5.9c0-0.1,0-0.1,0-0.2v0c-0.1-3.2,2.4-5.9,5.6-6c0.1,0,0.1,0,0.2,0c3.2,0,5.9,2.7,5.8,5.9c0,0.1,0,0.1,0,0.2
			l0,0c0.1,3.2-2.4,5.9-5.5,6C93.5,15.1,93.4,15.1,93.4,15.1L93.4,15.1z M109.6,17.6h3V5.4l9.4,12.2h2.5V0.5h-3v11.8l-9.1-11.8h-2.8
			L109.6,17.6L109.6,17.6z M140.7,17.9c2.6,0,5.2-1,7.1-2.7V8.1h-7.3v2.6h4.4v3.2c-1.2,0.9-2.7,1.3-4.1,1.3c-3.5,0-5.8-2.6-5.8-6.1
			V9c-0.1-3.2,2.4-5.9,5.6-6c1.8,0,3.5,0.6,4.8,1.8l1.9-2.3c-1.8-1.6-4.2-2.5-6.6-2.4c-4.8-0.1-8.8,3.8-8.8,8.6c0,0.1,0,0.2,0,0.2
			l0,0c-0.2,4.7,3.5,8.6,8.2,8.8C140.3,17.9,140.5,17.9,140.7,17.9L140.7,17.9z M166.6,17.6h3V0.5h-3V17.6z M183.9,17.9
			c3.6,0,6.1-1.9,6.1-5.1l0,0c0-2.8-1.9-4.1-5.5-5c-3.3-0.8-4.1-1.4-4.1-2.7l0,0c0-1.1,1-2,2.8-2c1.7,0.1,3.3,0.7,4.6,1.8l1.6-2.3
			c-1.7-1.5-3.9-2.3-6.2-2.3c-3.4,0-5.8,2-5.8,5l0,0c0,3.2,2,4.2,5.7,5.1c3.2,0.7,3.9,1.4,3.9,2.6l0,0c0,1.3-1.2,2.2-3,2.2
			c-2,0-4-0.8-5.4-2.1l-1.8,2.2C178.7,16.9,181.3,17.9,183.9,17.9L183.9,17.9z M197.2,17.6h12v-2.7h-9V0.5h-3V17.6z M214.5,17.6h3.1
			l1.8-4.1h8.1l1.7,4.1h3.2l-7.5-17.2h-2.8L214.5,17.6L214.5,17.6z M220.5,10.8l3-6.8l2.9,6.9L220.5,10.8z M239,17.6h3V5.4l9.4,12.2
			h2.6V0.5h-3v11.8l-9.2-11.8H239V17.6z M262,17.6h6.4c5.4,0,9.1-3.7,9.1-8.6V9c0-4.8-3.7-8.5-9.1-8.5H262V17.6z M268.4,3.2
			c3.1-0.2,5.7,2.2,5.9,5.3c0,0.2,0,0.4,0,0.6l0,0c0.1,3.1-2.3,5.7-5.4,5.8c-0.2,0-0.4,0-0.6,0H265V3.2L268.4,3.2z"/>
		<path class="st0" d="M385.1,84.6H402V57.3l16.8,27.3h15.5V23.1h-16.9v26l-16-26h-16.3V84.6z M440,84.6h41.4V68.4h-24.3v-7.3h22.1
			V46.3h-22.1v-7h23.9V23.1H440L440,84.6L440,84.6z M497.4,85h15.8l7.8-28.9l7.7,28.9h15.8l15.3-61.8L542,23.1l-6.2,30.7L528.5,23
			h-14.7l-7.3,30.8l-6.2-30.7h-18.1L497.4,85z M589.9,84.2c2.6-0.8,4.9-2.2,6.9-4c1.9-1.8,3.5-3.9,4.5-6.3c1.1-2.7,1.6-5.5,1.6-8.4
			v-0.3c0.1-2.5-0.4-5-1.4-7.3c-0.9-2.1-2.3-3.9-4-5.4c-1.8-1.6-3.9-2.9-6.1-3.9c-2.5-1.1-5.2-2.1-7.8-2.9c-2-0.6-3.9-1.5-5.7-2.5
			c-0.9-0.5-1.5-1.4-1.5-2.4v-0.2c0-0.8,0.4-1.5,1-1.9c0.8-0.6,1.9-0.9,2.9-0.8c2.5,0,5,0.6,7.3,1.5c2.4,1,4.7,2.3,6.8,4l8.1-13.8
			c-3-2.6-6.4-4.6-10.2-5.8c-3.8-1.2-7.8-1.8-11.8-1.7c-3.1,0-6.1,0.5-9,1.5c-2.5,0.9-4.8,2.3-6.8,4.2c-1.8,1.8-3.3,4-4.3,6.4
			c-1,2.5-1.5,5.3-1.5,8v0.3c-0.1,2.6,0.4,5.1,1.5,7.5c1,2.1,2.4,3.9,4.2,5.4c1.9,1.6,4,2.9,6.3,3.9c2.4,1,5,2,7.8,3
			c1.9,0.5,3.6,1.3,5.3,2.2c0.9,0.5,1.4,1.4,1.5,2.4V67c0,0.8-0.4,1.6-1,2.1c-1,0.6-2.2,0.9-3.3,0.8c-2.8,0-5.7-0.6-8.3-1.8
			c-3-1.3-5.8-3-8.4-5.1l-8.3,13.6c3.3,3,7.2,5.4,11.4,6.8c4.3,1.5,8.8,2.2,13.4,2.2C584,85.7,587,85.3,589.9,84.2L589.9,84.2z"/>
		<path class="st1" d="M0,84.6h34.8c4.3,0.1,8.7-0.5,12.8-1.8c3.3-1,6.4-2.7,9.1-5c2.4-2.1,4.2-4.6,5.4-7.5c1.2-3,1.8-6.2,1.8-9.4
			v-0.5c0-2.5-0.3-5-1.1-7.3c-0.7-2-1.7-3.9-3-5.6c-1.3-1.6-2.8-3-4.5-4.1c-1.8-1.1-3.7-2.1-5.7-2.8c3.5-1.5,6.5-4,8.8-7.1
			c2.4-3.5,3.6-7.6,3.4-11.8v-0.6c0.1-2.7-0.4-5.4-1.3-8c-0.8-2.1-1.9-4.1-3.5-5.8C52.5,2.5,45.2,0,35.3,0H0V84.6z M38.6,27.2
			c0,4.1-2.6,6.2-7.8,6.2H23V20.8h7.9c5.2,0,7.8,2.1,7.8,6.3L38.6,27.2L38.6,27.2z M40.2,57.3c0.1,1.8-0.7,3.5-2,4.7
			c-1.4,1.2-3.4,1.8-6,1.8H23V50.7h9.1c2.7,0,4.7,0.6,6,1.8c1.3,1.2,2.1,2.9,2,4.7L40.2,57.3L40.2,57.3z M101.3,84.4
			c2.9-0.9,5.5-2.5,7.7-4.7c2.3-2.3,4-5.1,5-8.2c1.3-3.9,1.8-7.9,1.8-12V23.1H98.2v37.2c0,3-0.6,5.2-1.9,6.6c-1.3,1.3-3,2.1-4.8,2
			c-1.9,0.1-3.6-0.7-4.8-2.1c-1.3-1.4-1.9-3.7-1.9-6.8V23.1H67.2v36.7c-0.1,4,0.5,8,1.8,11.8c1,3,2.7,5.8,4.9,8.1
			c2.1,2.1,4.7,3.7,7.6,4.7c3.2,1,6.5,1.5,9.8,1.5C94.7,85.9,98.1,85.4,101.3,84.4L101.3,84.4z M150.2,84.2c2.6-0.8,4.9-2.2,6.9-4
			c1.9-1.8,3.5-3.9,4.5-6.3c1.1-2.7,1.6-5.5,1.6-8.4v-0.3c0.1-2.5-0.4-5-1.4-7.3c-0.9-2.1-2.3-3.9-4-5.4c-1.8-1.6-3.9-2.9-6.1-3.9
			c-2.5-1.1-5.2-2.1-7.9-2.9c-2-0.6-3.9-1.5-5.7-2.5c-0.9-0.5-1.5-1.4-1.5-2.4v-0.2c0-0.8,0.4-1.5,1-1.9c0.8-0.6,1.9-0.9,2.9-0.8
			c2.5,0,5,0.6,7.3,1.5c2.4,1,4.7,2.3,6.8,4l8.1-13.8c-3-2.6-6.4-4.6-10.1-5.8c-3.8-1.2-7.8-1.8-11.8-1.7c-3.1,0-6.1,0.5-9.1,1.5
			c-2.5,0.9-4.8,2.3-6.8,4.2c-1.8,1.8-3.3,4-4.3,6.4c-1,2.5-1.5,5.3-1.5,8v0.3c-0.1,2.6,0.4,5.1,1.5,7.5c1,2.1,2.4,3.9,4.2,5.4
			c1.9,1.6,4,2.9,6.3,3.9c2.4,1,5,2,7.8,3c1.8,0.5,3.6,1.3,5.3,2.2c0.9,0.5,1.4,1.4,1.5,2.4V67c0,0.8-0.4,1.6-1,2.1
			c-1,0.6-2.2,0.9-3.3,0.8c-2.8,0-5.7-0.6-8.3-1.8c-3-1.3-5.8-3-8.4-5.1l-8.3,13.6c3.3,3,7.2,5.4,11.4,6.8c4.3,1.5,8.8,2.2,13.4,2.2
			C144.3,85.7,147.3,85.3,150.2,84.2L150.2,84.2z M166.8,84.6H184V23.1h-17.2L166.8,84.6L166.8,84.6z M189.7,84.6h16.9V57.3
			l16.8,27.3h15.6V23.1H222v26l-16-26h-16.3L189.7,84.6L189.7,84.6z M244.6,84.6h41.4V68.4h-24.3v-7.3h22.1V46.3h-22.1v-7h23.9V23.1
			h-41L244.6,84.6L244.6,84.6z M320.3,84.2c2.5-0.8,4.9-2.2,6.9-4c1.9-1.8,3.4-3.9,4.5-6.3c1.1-2.7,1.6-5.5,1.6-8.4v-0.3
			c0.1-2.5-0.4-5-1.4-7.3c-0.9-2.1-2.3-3.9-4-5.4c-1.9-1.6-3.9-2.9-6.1-3.9c-2.5-1.1-5.2-2.1-7.8-2.9c-2-0.6-3.9-1.5-5.7-2.5
			c-0.9-0.5-1.5-1.4-1.5-2.4v-0.2c0-0.8,0.4-1.5,1-1.9c0.8-0.6,1.9-0.9,2.9-0.8c2.5,0,5,0.6,7.3,1.5c2.4,1,4.7,2.3,6.8,4l8.1-13.8
			c-3-2.6-6.4-4.6-10.1-5.8c-3.8-1.2-7.8-1.8-11.8-1.7c-3.1,0-6.1,0.5-9,1.5c-2.5,0.9-4.8,2.3-6.8,4.2c-1.8,1.8-3.3,4-4.2,6.4
			c-1,2.5-1.5,5.3-1.5,8v0.3c-0.1,2.6,0.4,5.1,1.5,7.5c1,2.1,2.4,3.9,4.2,5.4c1.9,1.6,4,2.9,6.3,3.9c2.4,1,5,2,7.8,3
			c1.9,0.5,3.6,1.3,5.3,2.2c0.9,0.5,1.4,1.4,1.5,2.4V67c0,0.8-0.4,1.6-1,2.1c-1,0.6-2.1,0.9-3.3,0.8c-2.8,0-5.7-0.6-8.3-1.8
			c-3-1.3-5.8-3-8.4-5.1l-8.3,13.5c3.3,3,7.2,5.4,11.4,6.8c4.3,1.5,8.8,2.2,13.4,2.2C314.3,85.7,317.4,85.2,320.3,84.2L320.3,84.2z
			 M366.2,84.2c2.6-0.8,4.9-2.2,6.9-4c1.9-1.8,3.5-3.9,4.5-6.3c1.1-2.7,1.6-5.5,1.6-8.4v-0.3c0.1-2.5-0.4-5-1.4-7.3
			c-0.9-2.1-2.3-3.9-4-5.4c-1.8-1.6-3.9-2.9-6.1-3.9c-2.5-1.2-5.2-2.1-7.8-2.9c-2-0.6-3.9-1.5-5.7-2.5c-0.9-0.5-1.5-1.4-1.5-2.4
			v-0.2c0-0.8,0.4-1.5,1-1.9c0.8-0.6,1.9-0.9,2.9-0.8c2.5,0,5,0.6,7.3,1.5c2.4,1,4.7,2.3,6.8,4l8.1-13.8c-3-2.6-6.4-4.6-10.2-5.8
			c-3.8-1.2-7.8-1.8-11.7-1.7c-3.1,0-6.1,0.5-9,1.5c-2.5,0.9-4.8,2.3-6.8,4.2c-1.8,1.8-3.3,4-4.3,6.4c-1,2.5-1.5,5.3-1.5,8v0.3
			c-0.1,2.6,0.4,5.2,1.5,7.5c1,2.1,2.4,3.9,4.2,5.4c1.9,1.6,4,2.8,6.2,3.8c2.4,1,5,2,7.8,3c1.9,0.5,3.6,1.3,5.3,2.2
			c0.9,0.5,1.4,1.4,1.5,2.4v0.2c0,0.8-0.4,1.6-1,2.1c-1,0.6-2.2,0.9-3.3,0.8c-2.8,0-5.7-0.6-8.3-1.8c-3-1.3-5.8-3-8.4-5.1l-8.3,13.6
			c3.3,3,7.2,5.4,11.4,6.8c4.3,1.5,8.8,2.2,13.4,2.2C360.2,85.7,363.2,85.2,366.2,84.2L366.2,84.2z"/>
	</g>
</g>
</svg>
