<?xml version="1.0" encoding="utf-8"?>
<!-- Generator: Adobe Illustrator 24.0.1, SVG Export Plug-In . SVG Version: 6.00 Build 0)  -->
<svg version="1.1" id="Layer_1" xmlns="http://www.w3.org/2000/svg" xmlns:xlink="http://www.w3.org/1999/xlink" x="0px" y="0px"
	 width="602.8px" height="109.5px" viewBox="0 0 602.8 109.5" style="enable-background:new 0 0 602.8 109.5;" xml:space="preserve"
	>
<style type="text/css">
	.st0{fill:#414042;}
	.st1{fill:#008BCE;}
	.st2{fill:#636466;}
</style>
<title>MALW</title>
<g id="Layer_2_1_">
	<g id="MALW">
		<path class="st0" d="M395.7,1.5l6.2,0.8c2.4,0.3,2.6,1.3,2.2,4.4c-1.6,9.8-8,34.6-16.1,63c-9-34.2-16.1-63-17.4-69.3
			c-2.1,0.1-4.2,0.1-6.3,0c-0.9,6.1-8.2,38.8-15.8,68.7c-3.7-15.1-10.8-42.8-16-63.7c-0.4-1.9,0-2.9,1.9-3.2l5.3-0.6L339.1,0
			c-3.2,0-8.3,0.5-12.5,0.5c-5.5,0-9.9-0.4-12.2-0.5v1.5c6,0.3,7,1.1,9.4,8.7c4.3,14.3,14.2,52.3,18.7,73c1.7-0.3,3.5-0.3,5.2-0.1
			c3.9-17.2,7.8-32.8,16.5-69.3c6.9,27.7,14.2,55.1,17.4,69.4c1.7-0.2,3.5-0.3,5.2-0.1C394.1,56,401.6,27.2,407,9.9
			c2.3-6.8,3.1-7.6,9.6-8.4V0c-2.8,0-5.1,0.4-10.4,0.5c-4.1,0.1-8.8-0.5-10.8-0.5L395.7,1.5L395.7,1.5z M444.9,69.1l-1.2-0.7
			c-2.6,6.9-6.3,11.2-14.5,11.2c-5.3,0-8.7-2.1-11.2-6.3c-2.1-3.5-3.8-9.8-3.4-16.5h13.4c7.9-0.1,13.5-0.5,15.2-1.2
			c1.1-0.4,1.6-2.3,1.6-4.3c0-4.7-2.3-17.5-17.7-17.5c-15,0-22,12-22,25.5c0,6.2,1.5,12.2,4.1,15.9c3.5,5.1,8.9,7.7,17.1,7.7
			C435.7,83,442,78.2,444.9,69.1L444.9,69.1z M426.6,35.5c7.8,0,9.8,9.1,9.8,15c0,2.4-0.7,3.5-2.2,4c-3.4,0.5-6.9,0.7-10.4,0.7h-9.1
			c0.5-10.3,4-19.6,11.8-19.6L426.6,35.5z M486.7,69.1l-1.2-0.7c-2.6,6.9-6.3,11.2-14.5,11.2c-5.3,0-8.7-2.1-11.2-6.3
			c-2.1-3.5-3.7-9.8-3.4-16.5h13.4c7.9-0.1,13.5-0.5,15.2-1.2c1.1-0.4,1.7-2.3,1.7-4.3c0-4.7-2.3-17.5-17.7-17.5
			c-15,0-22,12-22,25.5c0,6.2,1.5,12.2,4.1,15.9c3.5,5.1,8.9,7.7,17,7.7C477.6,83,483.9,78.2,486.7,69.1L486.7,69.1z M468.5,35.5
			c7.8,0,9.8,9.1,9.8,15c0,2.4-0.7,3.5-2.2,4c-3.4,0.5-6.9,0.7-10.4,0.7h-9.1c0.5-10.3,4-19.6,11.8-19.6L468.5,35.5z M486,7.6
			l3.9,0.1c1.7,0.1,2.3,0.7,2.3,1.7c0.2,3.5,0.2,9.4,0.2,21v26.4c0,11-0.3,19.2-0.7,21.3c-0.2,1.9-1,2.5-5.9,2.8l-0.1,1.3
			c2.4,0,5.3-0.4,9.8-0.4c5,0,9,0.4,11.8,0.4l0.2-1.3c-5.2-0.2-6.2-0.6-6.3-2.9c-0.3-5.8-0.3-12.7-0.3-20c1.2-0.3,1.9,0,2.6,1.2
			c2,2.9,13.7,18.1,17.6,24.1c5.2-0.8,10.4-1.2,15.6-1.2l0.3-1.2h-3.6c-1.4-0.1-2.8-0.6-3.9-1.7c-3.1-3.2-14.8-19-20.5-26.8
			c4.1-4.2,10.7-10.6,13.4-13.1c2.2-2.1,4.8-3.1,10-3.5l-0.1-1.2c-6.3,0.4-14.2,0.9-18.8,0.9l-0.2,1.2l5,0.4
			c1.2,0.1,1.5,0.7,0.9,1.7c-3.2,5.1-14.2,17.1-18.4,17.7V32.5c0-10,0.3-22.3,0.5-27.4c-5.1,0.8-10.2,1.2-15.3,1.3L486,7.6z
			 M535.9,7.6c5.4,0,6.2,0.3,6.4,2c0.1,2.8,0.2,5.7,0.2,18.5v27.8c0,10.7-0.4,19.6-0.5,21.7c-0.2,2.4-1.1,3-6.2,3.2V82
			c2.1,0,5.8-0.4,10.5-0.4c3.8,0,8,0.4,11,0.4l0.3-1.3c-5.2-0.2-6.2-0.6-6.4-3s-0.2-7.8-0.2-20.9V30.3c0-12,0.3-20.3,0.5-25.2
			c-5.1,0.8-10.3,1.2-15.5,1.3L535.9,7.6L535.9,7.6z M553.4,36.3l2.8,0.3c2,0.3,2.7,0.9,4.2,4c3,6,9.5,23.9,15.2,38.9
			c0.6,1.6,1.4,3.1,2.5,4.5c-2.8,8.8-6.5,20.6-9.9,20.6c-1.8,0-2.4-1.2-3.1-3.5c-0.3-1.2-1.5-2.1-2.8-2c-2.3,0.1-4.1,2-4.1,4.3
			c0,0.1,0,0.2,0,0.2c0,2.9,2,5.9,6.4,5.9c6.7,0,9.7-7.2,13.3-18.5c4.7-14,14.1-41.4,17-49.1c2-4.6,2.9-5.3,7.5-5.6l0.3-1.3
			c-2.5,0-5.8,0.3-8.8,0.3c-2.4,0-6.2-0.3-8-0.3l-0.4,1.3l3.7,0.4c2.7,0.2,3.6,0.9,3,3.4c-2,7.5-6.6,22.9-10,32.6
			c-2.2-6.2-9-23.4-12.5-33.5c-0.5-1.9-0.3-2.2,1.7-2.5l3.1-0.4l-0.4-1.3c-2.1,0.1-6.7,0.3-10.5,0.3c-3.5,0-7.4-0.2-10.1-0.3
			L553.4,36.3L553.4,36.3z"/>
		<path class="st1" d="M52,59.5c-1.3,5.6-3,11.5-5.4,15.3s-6,4.8-18.2,4.8c-7.7,0-8.6-0.5-8.8-1.9c-0.3-3.4-0.3-16.7-0.3-30.8V33.7
			c0-13.8,0.3-22.8,0.5-28.4c0.1-2.2,0.9-3,3.2-3.3l5.5-0.5L28.1,0c-4.8,0.1-9.6,0.5-13.4,0.5C11.1,0.5,3.4,0,1.3,0L1.2,1.5l5.4,0.4
			c2.2,0.1,3,0.9,3,2.8C9.7,7.6,10,12.5,10,26.1v21.1c0,13.6-0.3,24.8-0.8,29.4c-0.2,2.3-0.9,2.9-3.3,3.3l-5.7,0.6L0,82
			c2.3,0,10-0.4,15.1-0.4c8.8,0,16.6,0,22.8,0.1s10.9,0.3,12.8,0.5c0.8-7.5,1.9-17.7,2.6-22.5L52,59.5z M83.1,51.2
			C79.2,54,68,57.7,60.3,60.8c-4,1.6-5.6,5.3-5.6,9.4c0,7.3,4.4,12.8,12.3,12.8c5.2,0,10.8-3,15.7-8.5c0.2,4.7,1.7,8.5,7.4,8.5
			c5.2,0,8.7-3.2,10-9.8L99,72.6c-1,4-2.7,7-4.9,7c-1.4,0-2.8-0.7-2.8-5.4V45.8c0-2-0.5-3.9-1.5-5.6c-1.5-2.4-5.1-5.9-14-5.9
			c-12.3,0-18.7,7.2-18.7,12.1c0,3.1,1.9,4.5,3.9,4.5c1.1,0,2.3-0.3,3.2-0.9c0.6-0.5,0.9-1.3,0.7-2c-0.2-1.2-0.4-2.3-0.4-3.5
			c0-4.8,2.8-8.6,9.8-8.6c6.4,0,8.8,4.7,8.8,9.8V51.2L83.1,51.2z M64.2,68.8c0-6.1,2.8-8,5.5-9.4c3.9-2.1,10.4-4.7,13.4-6.4v13.7
			c-0.1,1.5-0.3,2.9-0.7,4.4c-1.5,4-4.6,8-10.6,8c-4.9,0-7.6-4.7-7.6-10.2V68.8L64.2,68.8z M92.2,36.7c4.6,0.3,5.6,0.7,6.9,4.2
			c3.2,7.9,11.3,32.3,14.2,41.7c1.2,0,2.5,0.2,3.7,0.4c3.1-9.9,7.9-23.3,11.9-36.2c4.3,12.5,10.4,29.2,12.6,36.2
			c1.2-0.3,2.5-0.4,3.7-0.4c4-13.2,11-33.3,13.8-40c2-4.9,3.3-5.5,8.3-6l-0.1-1.2c-1.6,0-4.4,0.3-8.1,0.3c-3.2,0-6.6-0.3-9.2-0.3
			l-0.2,1.3l4.7,0.7c2.1,0.2,2.6,0.7,2.2,2.4c-1.1,5.7-5.4,19.2-9.9,32.5c-3.4-10-10.8-30.3-12.7-36.9c-1.3,0.2-2.6,0.3-3.9,0.2
			c-3,10.4-8.1,27.1-11.4,36.5c-3.4-11.1-8-23.4-10.4-32.4c-0.4-1.8-0.3-2.3,1.8-2.4l3.9-0.5l-0.3-1.3c-3.6,0.1-7.5,0.3-11.2,0.3
			c-4.6,0-7.8-0.2-10-0.3L92.2,36.7L92.2,36.7z M164.7,36.7l2.7,0.3c2,0.3,2.6,0.9,4.1,3.9c2.9,6,9.4,23.7,15.1,38.5
			c0.6,1.6,1.4,3.2,2.5,4.5c-2.7,8.7-6.4,20.4-9.8,20.4c-1.7,0-2.4-1.2-3.1-3.5c-0.3-1.2-1.5-2.1-2.7-2c-2.3,0.1-4.1,2-4,4.3
			c0,0.1,0,0.1,0,0.2c0,2.8,2,5.9,6.3,5.9c6.7,0,9.6-7.1,13.2-18.3c4.7-14,14-41,16.9-48.7c2-4.6,2.8-5.2,7.4-5.6l0.3-1.3
			c-2.5,0-5.8,0.3-8.7,0.3c-2.4,0-6.1-0.3-8-0.3l-0.4,1.3l3.7,0.4c2.6,0.2,3.6,0.9,3,3.4c-2,7.4-6.6,22.7-9.9,32.3
			c-2.2-6.1-9-23.2-12.3-33.2c-0.6-1.9-0.3-2.2,1.6-2.5l3-0.4l-0.3-1.3c-2.1,0.1-6.7,0.3-10.4,0.3c-3.5,0-7.3-0.2-10.1-0.3
			L164.7,36.7L164.7,36.7z M248.1,69.3l-1.2-0.7c-2.6,6.9-6.2,11.1-14.4,11.1c-5.2,0-8.6-2.1-11.1-6.2c-2.1-3.5-3.7-9.7-3.4-16.4
			h13.3c7.9-0.1,13.4-0.5,15.1-1.2c1.1-0.4,1.6-2.3,1.6-4.3c0-4.7-2.3-17.4-17.6-17.4c-14.9,0-21.8,11.9-21.8,25.3
			c0,6.1,1.5,12.1,4,15.7c3.5,5,8.8,7.6,16.9,7.6C239,83,245.2,78.2,248.1,69.3L248.1,69.3z M230,36c7.8,0,9.7,9.1,9.7,14.8
			c0,2.4-0.7,3.5-2.2,3.9c-3.4,0.5-6.8,0.7-10.3,0.7h-9.1c0.5-10.2,3.9-19.4,11.6-19.4H230z M254.5,63.6c0,7.4-0.2,12.1-0.4,14.4
			c-0.3,2-1.1,2.5-5.9,2.7l-0.4,1.2c3.2,0,6.2-0.4,10.8-0.4c4.4,0,9.3,0.4,12.3,0.4l0.2-1.3c-7.3-0.3-8-0.9-8.1-3.1
			c-0.2-3-0.2-7.8-0.2-22.5c-0.1-2.1,0.2-4.3,0.8-6.3c1.3-5.3,4.1-9.7,7.4-9.7c2.7,0,3.4,1.8,3.6,4.5c0.2,1.2,1.4,1.9,2.8,1.9
			s4.1-1.1,4.1-5.1c0.1-3.2-2.4-5.9-5.6-6c-0.2,0-0.3,0-0.5,0c-6.5,0-10,5.3-12.7,11.7h-0.2c0-3.7-0.2-7.4-0.6-11.1l-0.3-0.2
			c-2.9,1.2-10.1,1.8-13.5,2l-0.1,1.2h3.5c1.4,0,1.9,0.5,2.1,1.4c0.4,1.9,0.9,6.3,0.9,13.7L254.5,63.6L254.5,63.6z M311.2,50
			c-0.2-5.3,0-10.7,0.5-16l-1-0.3l-1.2,4c-1.6-1.8-6.4-3.3-10.6-3.3c-9.1,0-15.7,5.3-15.7,14.1c0,5.8,3.1,9.5,8.5,11.8
			c3.5,1.5,8.1,3.8,11.1,5.3c2.8,1.1,4.6,3.8,4.5,6.8c0,5.3-3,9-9.9,9c-5.4,0.2-10.3-3.3-11.9-8.4c-1-2.8-1.6-5.6-1.9-8.5l-1.2,0.4
			c0.3,5.5,0.2,12.7,0.1,15.2c3.4,1.3,8.6,3.1,13.6,3.1c9.3,0,17.9-4.5,17.9-15c0-4.9-2.5-8.3-7.2-10.6c-3.8-1.7-10.1-4.4-13.1-5.9
			c-2.8-1.2-4.6-4-4.5-7c0-5.5,3.7-8.6,8.7-8.6c7.2,0,11.7,6,11.9,14.5L311.2,50L311.2,50z"/>
		<path class="st2" d="M58,25.8h4V12.5l5.1,8.7h0.1l5.2-8.8v13.4h4V5.3h-4.3l-4.8,8.7l-4.9-8.7H58V25.8z M80.4,25.8h4.2l1.7-4.6h7.8
			l1.7,4.6h4.2L92.1,5.1h-3.7L80.4,25.8L80.4,25.8z M87.7,17.2l2.4-6.6l2.4,6.6H87.7z M110.7,26.1c4,0,6.8-2.3,6.8-6.4v-0.1
			c0-3.6-2.1-5.1-5.8-6.1c-3.2-0.9-4-1.4-4-2.7v-0.1c0-1,0.8-1.8,2.4-1.8c1.8,0.1,3.5,0.8,4.8,2l2.1-3.4C115,5.9,112.6,5,110.1,5
			c-3.8,0-6.5,2.5-6.5,6.2v0.1c0,4.1,2.4,5.2,6.1,6.3c3.1,0.9,3.7,1.5,3.7,2.6v0.1c0,1.2-1,1.9-2.7,1.9c-2.1-0.1-4.1-1-5.5-2.5
			l-2.4,3.2C105,24.9,107.8,26.1,110.7,26.1L110.7,26.1z M128.8,26.1c4,0,6.8-2.3,6.8-6.4v-0.1c0-3.6-2.1-5.1-5.9-6.1
			c-3.2-0.9-4-1.4-4-2.7v-0.1c0-1,0.8-1.8,2.4-1.8c1.8,0.1,3.5,0.8,4.8,2l2.1-3.4c-1.9-1.7-4.3-2.6-6.9-2.6c-3.8,0-6.5,2.5-6.5,6.2
			v0.1c0,4.1,2.4,5.2,6.1,6.3c3.1,0.9,3.7,1.5,3.7,2.6v0.1c0,1.2-1,1.9-2.7,1.9c-2.1-0.1-4.1-1-5.5-2.5l-2.4,3.2
			C123,24.9,125.8,26.1,128.8,26.1L128.8,26.1z M138.3,25.8h4.1l1.7-4.6h7.8l1.7,4.6h4.2l-7.9-20.7h-3.7L138.3,25.8L138.3,25.8z
			 M145.6,17.2l2.4-6.7l2.4,6.7H145.6z M169.4,26.1c3,0.1,5.8-1.3,7.6-3.7l-2.6-2.9c-1.4,1.4-2.7,2.4-4.8,2.4
			c-3.2,0-5.4-2.9-5.4-6.4v-0.1c0-3.5,2.2-6.4,5.4-6.4c1.8,0.1,3.5,0.9,4.7,2.3l2.6-3.3c-1.8-2.1-4.5-3.3-7.3-3.2
			c-5.7,0-9.6,4.8-9.6,10.6v0.1C160,21.5,164,26.2,169.4,26.1L169.4,26.1z M181.3,25.8h4.1v-8.2h7.5v8.2h4.1V5.3h-4.1v8.1h-7.5V5.3
			h-4.1V25.8z M210.6,26.1c5,0,8.1-3,8.1-9.3V5.3h-4V17c0,3.3-1.5,4.9-4,4.9s-4-1.7-4-5.1V5.3h-4.1V17
			C202.6,23,205.6,26.1,210.6,26.1L210.6,26.1z M230.6,26.1c4,0,6.8-2.3,6.8-6.4v-0.1c0-3.6-2.1-5.1-5.9-6.1c-3.2-0.9-4-1.4-4-2.7
			v-0.1c0-1,0.8-1.8,2.4-1.8c1.8,0.1,3.5,0.8,4.8,2l2.1-3.4C235,5.9,232.5,5,230,5c-3.8,0-6.5,2.5-6.5,6.2v0.1
			c0,4.1,2.4,5.2,6.1,6.3c3.1,0.9,3.7,1.5,3.7,2.6v0.1c0,1.2-1,1.9-2.7,1.9c-2.1-0.1-4.1-1-5.5-2.5l-2.4,3.2
			C224.9,24.9,227.7,26.1,230.6,26.1L230.6,26.1z M242.3,25.8h14v-4h-10v-4.3h8.7v-4h-8.7V9.3h9.9v-4h-13.9L242.3,25.8L242.3,25.8z
			 M265.6,25.8h4.1V9.4h5.6V5.3H260v4.2h5.6L265.6,25.8L265.6,25.8z M284.3,25.8h4.1V9.4h5.6V5.3h-15.3v4.2h5.6V25.8L284.3,25.8z
			 M304.9,26.1c4,0,6.8-2.3,6.8-6.4v-0.1c0-3.6-2.1-5.1-5.9-6.1c-3.2-0.9-4-1.4-4-2.7v-0.1c0-1,0.8-1.8,2.4-1.8
			c1.8,0.1,3.5,0.8,4.8,2l2.1-3.4c-1.9-1.7-4.3-2.6-6.8-2.6c-3.8,0-6.5,2.5-6.5,6.2v0.1c0,4.1,2.4,5.2,6.1,6.3
			c3.1,0.9,3.7,1.5,3.7,2.6v0.1c0,1.2-1,1.9-2.7,1.9c-2.1-0.1-4.1-1-5.5-2.5l-2.4,3.2C299.1,24.9,301.9,26.1,304.9,26.1L304.9,26.1z
			"/>
	</g>
</g>
</svg>
