<?xml version="1.0" encoding="utf-8"?>
<!-- Generator: Adobe Illustrator 24.0.1, SVG Export Plug-In . SVG Version: 6.00 Build 0)  -->
<svg version="1.1" id="Layer_1" xmlns="http://www.w3.org/2000/svg" xmlns:xlink="http://www.w3.org/1999/xlink" x="0px" y="0px"
	 width="620.1px" height="116.9px" viewBox="0 0 620.1 116.9" style="enable-background:new 0 0 620.1 116.9;" xml:space="preserve">
<style type="text/css">
	.st0{fill:#4D4D4F;}
	.st1{fill:#0083CA;}
	.st2{fill:#9A9A9B;}
</style>
<title>NYTDR-tag</title>
<g id="Layer_2_1_">
	<g id="Layer_1-2">
		<path class="st0" d="M205.4,14.7h2.1v-4.2l1.9-2.3l4.2,6.5h2.6L211,6.4l5.1-6.2h-2.7l-5.8,7.2V0.2h-2.1L205.4,14.7z M193.8,7.4
			V2.5h3.1c1.2-0.2,2.4,0.7,2.5,1.9c0,0.2,0,0.3,0,0.5V5c0.1,1.3-0.9,2.3-2.2,2.4c-0.1,0-0.2,0-0.3,0H193.8z M191.7,14.7h2.1v-5h2.7
			l3,5h2.6l-3.3-5.4c1.9-0.6,3.1-2.4,2.9-4.4l0,0c0-1.1-0.3-2.2-1-3.1c-0.9-1-2.2-1.5-3.5-1.5h-5.5L191.7,14.7z M181.5,12.6
			c-2.4,0-4.2-2.3-4.2-5.1l0,0c0-2.8,1.7-5.1,4.1-5.1s4.2,2.3,4.2,5.1l0,0C185.7,10.3,184,12.6,181.5,12.6 M181.5,14.9
			c3.8,0,6.4-3.4,6.4-7.5l0,0c0-4.1-2.6-7.4-6.4-7.4s-6.4,3.4-6.4,7.5l0,0C175.1,11.6,177.8,14.9,181.5,14.9 M166.7,14.7h2.2V8.9
			l4.8-8.7h-2.5l-3.5,6.4l-3.4-6.4h-2.6l4.9,8.8L166.7,14.7z M138.8,14.8h1.9l3-10.4l3,10.4h1.9l4.2-14.5h-2.3l-2.9,10.7l-3-10.7
			h-1.8l-3,10.7l-2.9-10.7h-2.3L138.8,14.8z M122.6,14.7h9.2v-2.3h-7V8.5h6.1V6.3h-6.2V2.5h6.9V0.2h-9.1L122.6,14.7z M107.6,14.7
			h2.1V4.4l6.8,10.2h1.8V0.2h-2.1v10l-6.6-10h-2L107.6,14.7z M85.7,14.7h2.1V4.4l6.8,10.2h1.8V0.2h-2.1v10l-6.6-10h-2L85.7,14.7z
			 M74.1,7.4V2.5h3.1c1.2-0.2,2.4,0.7,2.5,1.9c0,0.2,0,0.3,0,0.5V5c0.1,1.3-0.9,2.4-2.2,2.4c-0.1,0-0.2,0-0.3,0L74.1,7.4z
			 M71.9,14.7h2.2v-5h2.7l3,5h2.6L79,9.2c1.9-0.6,3.1-2.4,2.9-4.4l0,0c0-1.1-0.3-2.2-1-3.1c-0.9-1-2.2-1.5-3.5-1.5h-5.5V14.7z
			 M59,14.7h9.2v-2.3h-7V8.5h6.2V6.3h-6.2V2.5h6.9V0.2H59V14.7z M49.6,14.7h2.2V2.6h3.9V0.2h-9.9v2.3h3.9V14.7z M38.8,14.9
			c2.2,0.2,4.2-1.5,4.4-3.8c0-0.2,0-0.4,0-0.5v-0.1c0-2.4-1.3-3.5-3.9-4.2c-2.4-0.7-2.9-1.1-2.9-2.3l0,0c0-1,0.8-1.7,1.8-1.7
			c0.1,0,0.1,0,0.2,0c1.3,0.1,2.4,0.6,3.3,1.5l1.2-1.9C41.6,0.7,40,0,38.3,0c-2.2-0.1-4.1,1.6-4.2,3.8c0,0.1,0,0.3,0,0.4l0,0
			c0,2.7,1.5,3.6,4.1,4.3c2.3,0.6,2.8,1.2,2.8,2.2l0,0c0,1.1-0.8,1.8-2.2,1.8c-1.5,0-2.9-0.7-3.8-1.8l-1.3,1.8
			C35,14,36.9,14.9,38.8,14.9 M21.7,14.7h9.2v-2.3h-7V8.5H30V6.3h-6.2V2.5h6.9V0.2h-9.1L21.7,14.7z M4.3,14.8h1.8l3-10.4l3,10.4H14
			l4.3-14.5H16l-2.9,10.7l-3-10.7H8.3l-3,10.7L2.3,0.2H0L4.3,14.8z"/>
		<path class="st1" d="M592.2,37.1c7.4,0,12.4,5.7,12.4,20.9v2c0,15-5,20.9-12.4,20.9H590V37.1H592.2z M574.9,97h16.9
			c18.3,0,28.3-13.9,28.3-36.9v-2.6c0-22.9-9.9-36.7-28.2-36.7h-17L574.9,97z M542.9,58.2V36.6h3.8c5.1,0,8.3,3.4,8.3,10.4v0.4
			c0,6.7-2.9,10.7-8.2,10.7L542.9,58.2z M527.8,97h15V72.7h3.5L555,97h16.7l-11-28.9c5.5-3.9,9.5-10.3,9.5-21.3V46
			c0-7.9-1.9-13.9-5.4-18c-3.9-4.7-10-7.1-17.5-7.1h-19.5V97z M498.9,82.1c-5.3,0-9-6.5-9-22.1v-2.3c0-15.5,3.7-22,8.9-22
			s8.9,6.4,8.9,22.1v2.3C507.7,75.6,504.1,82.1,498.9,82.1 M498.8,98.4c14.5,0,24.3-14.1,24.3-38v-3.3c0-23.7-9.7-37.7-24.2-37.7
			s-24.3,14-24.3,37.8v3.3C474.6,84.4,484.3,98.4,498.8,98.4 M458.1,98.1c7.3,0,12.9-3.6,17.3-8.6l-7.5-13.9
			c-2.3,2.7-4.8,5.3-8.6,5.3c-5.3,0-10.4-5.9-10.4-21.8v-0.7c0-14.9,4.7-21.6,10.4-21.6c3.6,0,6.2,2.6,8.2,5l7.8-14.4
			c-4.3-4.9-9.5-7.7-16.5-7.7c-14,0-25.2,13-25.2,38v2.6C433.5,85.2,443.9,98.1,458.1,98.1 M395.1,97h36.2V80.7h-21.2V66.5h18.7
			V50.8h-18.7V37.2H431V20.9h-35.9V97z M363.1,58.2V36.6h3.9c5.1,0,8.3,3.4,8.3,10.4v0.4c0,6.7-2.9,10.7-8.2,10.7L363.1,58.2z
			 M348,97h15V72.7h3.5l8.7,24.3h16.7L381,68.1c5.5-3.9,9.5-10.3,9.5-21.3V46c0-7.9-1.9-13.9-5.4-18c-3.9-4.7-10-7.1-17.5-7.1H348
			V97z M305.2,97h15.1V68.5l16.3-47.6h-15.8l-8,27.2l-8-27.2h-16.1l16.4,47.7L305.2,97z M262.7,97h33.8V80.5h-18.6V20.9h-15.1V97z
			 M241.1,97h15.1V20.9h-15.1L241.1,97z M208.3,68.5l4.5-23.3l4.5,23.3H208.3z M187.6,97h15l2.8-13.8h14.9L223,97h15.5l-17.4-76.4
			h-16.3L187.6,97z M161.1,37.1c7.4,0,12.4,5.7,12.4,20.9v2c0,15-5,20.9-12.4,20.9h-2.1V37.1L161.1,37.1z M143.8,97h16.9
			c18.3,0,28.3-13.9,28.3-36.9v-2.6c0-22.9-9.9-36.7-28.2-36.7h-17L143.8,97z M92.4,97h36.2V80.7h-21.2V66.5h18.7V50.8h-18.7V37.2
			h20.8V20.9H92.4V97z M42.5,97h15.1V67h13.2v30H86V20.9H70.8v29.5H57.6V20.9H42.5V97z M12.1,97h15.2V37.4h12.1V20.9H0v16.5h12.1V97
			z"/>
	</g>
</g>
<g>
	<path class="st2" d="M67.7,112.2l-3.9-7h2l2.7,5.1l2.8-5.1h2l-3.9,6.9v4.6h-1.7L67.7,112.2z"/>
	<path class="st2" d="M74.4,111L74.4,111c0-3.2,2.1-5.9,5.1-5.9s5.1,2.7,5.1,5.9l0,0c0,3.2-2.1,5.9-5.1,5.9S74.4,114.3,74.4,111z
		 M82.8,111L82.8,111c0-2.2-1.4-4.1-3.3-4.1c-1.9,0-3.3,1.8-3.3,4l0,0c0,2.2,1.4,4.1,3.3,4.1C81.5,115,82.8,113.2,82.8,111z"/>
	<path class="st2" d="M87.4,111.9v-6.6h1.7v6.5c0,2.1,0.9,3.3,2.4,3.3s2.4-1.1,2.4-3.2v-6.6h1.7v6.5c0,3.4-1.7,5.1-4.2,5.1
		C89,116.9,87.4,115.2,87.4,111.9z"/>
	<path class="st2" d="M99,105.2h4.3c1.1-0.1,2.1,0.4,2.8,1.2c0.5,0.7,0.8,1.6,0.8,2.4l0,0c0.1,1.6-0.8,3-2.3,3.5l2.6,4.3h-2l-2.4-4
		h-2.1v4H99L99,105.2z M103.3,110.9c1,0.1,1.9-0.7,2-1.7c0-0.1,0-0.2,0-0.3l0,0c0.1-1-0.7-1.8-1.6-1.9c-0.1,0-0.3,0-0.4,0h-2.4v3.9
		L103.3,110.9z"/>
	<path class="st2" d="M117.9,107.1h-3.1v-1.9h7.9v1.9h-3.1v9.6h-1.7L117.9,107.1z"/>
	<path class="st2" d="M125.4,105.2h4.3c1.1-0.1,2.1,0.4,2.8,1.2c0.5,0.7,0.8,1.6,0.8,2.4l0,0c0.1,1.6-0.8,3-2.3,3.5l2.6,4.3h-2
		l-2.4-4h-2.1v4h-1.7V105.2z M129.6,110.9c1,0.1,1.9-0.7,2-1.7c0-0.1,0-0.2,0-0.3l0,0c0.1-1-0.7-1.8-1.6-1.9c-0.1,0-0.3,0-0.4,0
		h-2.4v3.9L129.6,110.9z"/>
	<path class="st2" d="M136.3,111.9v-6.6h1.7v6.5c0,2.1,0.9,3.3,2.4,3.3s2.4-1.1,2.4-3.2v-6.6h1.7v6.5c0,3.4-1.6,5.1-4.2,5.1
		S136.3,115.2,136.3,111.9z"/>
	<path class="st2" d="M147.2,115.1l1-1.4c0.8,0.9,1.9,1.5,3.1,1.5c1.1,0,1.7-0.6,1.7-1.4l0,0c0-0.8-0.4-1.2-2.2-1.8
		c-2.1-0.6-3.2-1.3-3.2-3.4l0,0c-0.1-1.8,1.3-3.2,3-3.3c0.1,0,0.2,0,0.3,0c1.3,0,2.6,0.5,3.5,1.4l-0.9,1.5c-0.7-0.7-1.6-1.2-2.6-1.2
		c-0.8-0.1-1.5,0.4-1.6,1.2c0,0,0,0.1,0,0.1l0,0c0,0.9,0.5,1.2,2.3,1.8c2.1,0.6,3.1,1.5,3.1,3.4l0,0c0.1,1.8-1.3,3.3-3,3.4
		c-0.1,0-0.3,0-0.4,0C149.7,116.8,148.3,116.2,147.2,115.1z"/>
	<path class="st2" d="M159.9,107.1h-3.1v-1.9h7.9v1.9h-3.1v9.6h-1.7V107.1z"/>
	<path class="st2" d="M167.4,105.2h7.2v1.8h-5.5v3h4.9v1.8h-4.9v3.1h5.6v1.8h-7.3V105.2z"/>
	<path class="st2" d="M177.6,105.2h3.7c3.1,0,5.2,2.4,5.2,5.7l0,0c0,3.2-2.1,5.7-5.2,5.7h-3.7V105.2z M179.3,107.1v7.8h1.9
		c2,0,3.4-1.6,3.4-3.9l0,0c0-2.2-1.3-3.9-3.4-3.9L179.3,107.1z"/>
	<path class="st2" d="M194.2,115.1l1-1.4c0.8,0.9,1.9,1.5,3.1,1.5c1.1,0,1.7-0.6,1.7-1.4l0,0c0-0.8-0.4-1.2-2.2-1.8
		c-2.1-0.6-3.2-1.3-3.2-3.4l0,0c-0.1-1.8,1.3-3.3,3.1-3.3c0.1,0,0.2,0,0.3,0c1.3,0,2.6,0.5,3.5,1.4l-0.9,1.5
		c-0.7-0.7-1.6-1.2-2.6-1.2c-0.8-0.1-1.5,0.4-1.6,1.2c0,0,0,0.1,0,0.1l0,0c0,0.9,0.4,1.2,2.3,1.8c1.9,0.6,3.1,1.5,3.1,3.4l0,0
		c0.1,1.8-1.3,3.3-3,3.4c-0.1,0-0.3,0-0.4,0C196.8,116.8,195.3,116.2,194.2,115.1z"/>
	<path class="st2" d="M204.3,111L204.3,111c0-3.2,2.1-5.9,5.1-5.9c3,0,5.1,2.7,5.1,5.9l0,0c0,3.2-2.1,5.9-5.1,5.9
		C206.4,116.9,204.3,114.3,204.3,111z M212.7,111L212.7,111c0-2.2-1.4-4.1-3.3-4.1c-1.9,0-3.3,1.8-3.3,4l0,0c0,2.2,1.4,4.1,3.3,4.1
		S212.7,113.2,212.7,111z"/>
	<path class="st2" d="M217.3,111.9v-6.6h1.7v6.5c0,2.1,0.9,3.3,2.4,3.3s2.4-1.1,2.4-3.2v-6.6h1.7v6.5c0,3.4-1.6,5.1-4.2,5.1
		S217.3,115.2,217.3,111.9z"/>
	<path class="st2" d="M228.9,105.2h4.3c1.1-0.1,2.1,0.4,2.8,1.2c0.5,0.7,0.8,1.6,0.8,2.4l0,0c0.1,1.6-0.8,3-2.3,3.5l2.6,4.3h-2
		l-2.4-4h-2.1v4h-1.7L228.9,105.2z M233.2,110.9c1,0.1,1.9-0.7,2-1.7c0-0.1,0-0.2,0-0.3l0,0c0.1-1-0.7-1.8-1.6-1.9
		c-0.1,0-0.3,0-0.4,0h-2.4v3.9L233.2,110.9z"/>
	<path class="st2" d="M239.5,111L239.5,111c0-3.3,2.1-5.9,5-5.9c1.5,0,2.9,0.6,3.8,1.8l-1.1,1.5c-0.7-0.9-1.7-1.4-2.7-1.4
		c-1.8,0-3.2,1.8-3.2,4l0,0c0,2.2,1.3,4.1,3.2,4.1c1.1,0,2.2-0.6,2.8-1.5l1.1,1.3c-0.9,1.3-2.4,2.1-4,2
		C241.6,116.9,239.5,114.3,239.5,111z"/>
	<path class="st2" d="M251.1,105.2h7.2v1.8h-5.5v3h4.9v1.8h-4.9v3.1h5.6v1.8H251L251.1,105.2z"/>
	<path class="st2" d="M266.8,105.2h7.3v1.8h-5.5v3.1h4.9v1.9h-4.9v4.7h-1.7V105.2z"/>
	<path class="st2" d="M276.3,111L276.3,111c0-3.2,2.1-5.9,5.1-5.9s5.1,2.7,5.1,5.9l0,0c0,3.2-2.1,5.9-5.1,5.9S276.3,114.3,276.3,111
		z M284.7,111L284.7,111c0-2.2-1.4-4.1-3.3-4.1s-3.3,1.8-3.3,4l0,0c0,2.2,1.4,4.1,3.3,4.1S284.7,113.2,284.7,111z"/>
	<path class="st2" d="M289.5,105.2h4.3c1.1,0,2.1,0.4,2.8,1.2c0.5,0.7,0.8,1.6,0.8,2.4l0,0c0.1,1.6-0.8,3-2.3,3.5l2.6,4.3h-2l-2.4-4
		h-2.1v4h-1.7V105.2z M293.8,110.9c1,0.1,1.9-0.7,2-1.7c0-0.1,0-0.2,0-0.3l0,0c0.1-1-0.6-1.8-1.6-1.9c-0.1,0-0.3,0-0.4,0h-2.4v3.9
		L293.8,110.9z"/>
	<path class="st2" d="M306,105.2h1.7v9.6h5.1v1.8H306L306,105.2z"/>
	<path class="st2" d="M315.5,105.2h7.2v1.8h-5.5v3h4.9v1.8h-4.9v3.1h5.6v1.8h-7.3L315.5,105.2z"/>
	<path class="st2" d="M325.3,111L325.3,111c0-3.2,2.1-5.9,5-5.9c1.4-0.1,2.8,0.5,3.7,1.6l-1.1,1.5c-0.7-0.8-1.7-1.2-2.7-1.2
		c-1.8,0-3.2,1.8-3.2,4l0,0c0,2.4,1.3,4.1,3.3,4.1c0.9,0,1.7-0.3,2.4-0.9v-2.1h-2.4v-1.8h4.2v4.8c-1.1,1.1-2.5,1.8-4.1,1.8
		C327.3,116.9,325.3,114.4,325.3,111z"/>
	<path class="st2" d="M341,105.2h1.6l4.3,11.6h-1.8l-1-2.8h-4.6l-1,2.8h-1.8L341,105.2z M343.4,112.2l-1.7-4.6l-1.7,4.6H343.4z"/>
	<path class="st2" d="M349.5,105.2h1.7v9.6h5.1v1.8h-6.8V105.2z"/>
	<path class="st2" d="M367.9,105.2h1.6l4.3,11.6H372l-1-2.8h-4.6l-1,2.8h-1.8L367.9,105.2z M370.4,112.2l-1.7-4.6l-1.7,4.6H370.4z"
		/>
	<path class="st2" d="M376.4,105.2h1.6l5.2,7.9v-7.9h1.7v11.5h-1.4l-5.4-8.2v8.2h-1.7L376.4,105.2z"/>
	<path class="st2" d="M388.3,105.2h3.7c3.1,0,5.2,2.4,5.2,5.7l0,0c0,3.2-2.1,5.7-5.2,5.7h-3.7V105.2z M390.1,107.1v7.8h1.9
		c2,0,3.4-1.6,3.4-3.9l0,0c0-2.2-1.3-3.9-3.4-3.9L390.1,107.1z"/>
	<path class="st2" d="M405.6,105.2h4.3c1.1-0.1,2.1,0.4,2.8,1.2c0.5,0.7,0.8,1.6,0.8,2.4l0,0c0.1,1.6-0.8,3-2.3,3.5l2.6,4.3h-2
		l-2.4-4h-2.1v4h-1.7L405.6,105.2z M409.9,110.9c1,0.1,1.9-0.7,2-1.7c0-0.1,0-0.2,0-0.2l0,0c0.1-1-0.7-1.8-1.6-1.9
		c-0.1,0-0.3,0-0.4,0h-2.4v3.9L409.9,110.9z"/>
	<path class="st2" d="M416.6,105.2h7.2v1.8h-5.5v3h4.9v1.8h-4.9v3.1h5.6v1.8h-7.3L416.6,105.2z"/>
	<path class="st2" d="M430.3,105.2h1.6l4.3,11.6h-1.8l-1-2.8h-4.6l-1,2.8H426L430.3,105.2z M432.7,112.2l-1.7-4.6l-1.7,4.6H432.7z"
		/>
	<path class="st2" d="M438.8,105.2h1.7v9.6h5.1v1.8h-6.8V105.2z"/>
	<path class="st2" d="M453.8,105.2h7.3v1.8h-5.5v3h4.9v1.8h-4.9v3.1h5.5v1.8h-7.3L453.8,105.2z"/>
	<path class="st2" d="M463.3,115.1l1-1.4c0.8,0.9,1.9,1.5,3.1,1.5c1.1,0,1.7-0.6,1.7-1.4l0,0c0-0.8-0.4-1.2-2.2-1.8
		c-2.1-0.6-3.2-1.3-3.2-3.4l0,0c-0.1-1.8,1.3-3.3,3.1-3.3c0.1,0,0.2,0,0.3,0c1.3,0,2.6,0.5,3.5,1.4l-0.9,1.5
		c-0.7-0.7-1.6-1.2-2.6-1.2c-0.8-0.1-1.5,0.4-1.6,1.2c0,0,0,0.1,0,0.1l0,0c0,0.9,0.4,1.2,2.3,1.8s3.1,1.5,3.1,3.4l0,0
		c0.1,1.8-1.3,3.3-3,3.4c-0.1,0-0.3,0-0.4,0C465.9,116.8,464.4,116.2,463.3,115.1z"/>
	<path class="st2" d="M476,107.1h-3.1v-1.9h7.9v1.9h-3.1v9.6H476L476,107.1z"/>
	<path class="st2" d="M485.8,105.2h1.6l4.3,11.6h-1.8l-1-2.8h-4.6l-1,2.8h-1.8L485.8,105.2z M488.2,112.2l-1.7-4.6l-1.7,4.6H488.2z"
		/>
	<path class="st2" d="M495.3,107.1h-3.1v-1.9h8v1.9h-3.1v9.6h-1.8V107.1z"/>
	<path class="st2" d="M502.9,105.2h7.2v1.8h-5.5v3h4.9v1.8h-4.9v3.1h5.6v1.8h-7.3L502.9,105.2z"/>
	<path class="st2" d="M518.6,105.2h1.6l5.2,7.9v-7.9h1.7v11.5h-1.4l-5.4-8.2v8.2h-1.7V105.2z"/>
	<path class="st2" d="M530.5,105.2h7.2v1.8h-5.5v3h4.9v1.8h-4.9v3.1h5.6v1.8h-7.3L530.5,105.2z"/>
	<path class="st2" d="M540,105.2h1.9l2.3,8.5l2.4-8.6h1.4l2.4,8.6l2.3-8.5h1.8l-3.4,11.6h-1.5l-2.4-8.2l-2.4,8.2h-1.5L540,105.2z"/>
	<path class="st2" d="M556.2,115.1l1-1.4c0.8,0.9,1.9,1.5,3.1,1.5c1.1,0,1.7-0.6,1.7-1.4l0,0c0-0.8-0.4-1.2-2.2-1.8
		c-2.1-0.6-3.2-1.3-3.2-3.4l0,0c-0.1-1.8,1.3-3.2,3-3.3c0.1,0,0.2,0,0.3,0c1.3,0,2.6,0.5,3.5,1.4l-0.9,1.5c-0.7-0.7-1.6-1.2-2.6-1.2
		c-0.8-0.1-1.5,0.4-1.6,1.2c0,0,0,0.1,0,0.1l0,0c0,0.9,0.5,1.2,2.3,1.8c2.1,0.6,3.1,1.5,3.1,3.4l0,0c0.1,1.8-1.3,3.3-3,3.4
		c-0.1,0-0.3,0-0.4,0C558.8,116.8,557.3,116.2,556.2,115.1z"/>
</g>
</svg>
