<?xml version="1.0" encoding="utf-8"?>
<!-- Generator: Adobe Illustrator 24.0.1, SVG Export Plug-In . SVG Version: 6.00 Build 0)  -->
<svg version="1.1" id="Layer_1" xmlns="http://www.w3.org/2000/svg" xmlns:xlink="http://www.w3.org/1999/xlink" x="0px" y="0px"
	 width="602.9px" height="94.1px" viewBox="0 0 602.9 94.1" style="enable-background:new 0 0 602.9 94.1;" xml:space="preserve">
<style type="text/css">
	.st0{fill:#ED1C24;}
	.st1{fill:#636466;}
</style>
<title>NOPG</title>
<g id="Layer_2_1_">
	<g id="NOPG">
		<path class="st0" d="M159.4,53.8c-0.1-0.7-0.2-1.5-0.4-2.2c-0.7-2.2-1.9-4.1-3.7-5.6c-2-1.7-4.3-2.8-6.8-3.4
			c-1.2-0.3-2.3-0.5-3.5-0.5c-1.2,0-2.4,0.1-3.6,0.3c-1.5,0.3-3,0.7-4.4,1.3c-1,0.4-1.9,1-2.8,1.6c0.6-1,1.2-2.1,1.6-3.2
			c0.3-0.9,0.6-1.9,0.7-2.8c0.2-1.2,0.2-2.4,0.1-3.5c-0.1-1.1-0.3-2.1-0.6-3.2c-0.4-1.2-0.8-2.4-1.4-3.5c-0.7-1.6-1.6-3.2-2.4-4.7
			c-1.1-2.1-2.3-4.1-3.6-6.1c-0.5-0.8-0.9-1.5-1.4-2.2c-1,0.8-2.3,1.3-3.6,1.3c-1.3,0-2.6-0.5-3.6-1.3c-1.6,2.6-3.2,5.2-4.7,7.8
			c-0.9,1.5-1.7,3.1-2.4,4.7c-0.6,1.1-1,2.3-1.4,3.5c-0.3,1-0.6,2.1-0.7,3.2c-0.1,1.1-0.1,2.2,0,3.2c0.1,1.1,0.3,2.1,0.7,3.2
			c0.3,1,0.8,2,1.3,2.9c-1.1-0.6-2.3-1.1-3.6-1.5c-1.3-0.4-2.6-0.7-4-0.8c-2.4-0.2-4.8,0.2-7.1,1C95.8,44,93.7,45.3,92,47
			c-1.5,1.6-2.5,3.5-2.9,5.7c-0.3,1.4-0.3,2.8,0,4.1c0.3,1.5,0.8,2.9,1.5,4.2c1.5,2.4,3.8,4.1,6.5,5c1.6,0.5,3.3,0.7,5,0.6
			c1.4,0,2.9-0.4,4.2-1c0.6-0.3,1.1-0.6,1.6-1.1c0.4-0.4,0.8-0.8,1.1-1.3c0.6-1.1,1-2.4,1.1-3.7c-1.2,0.6-2.5,1-3.8,1.2
			c-0.5,0-1,0-1.5-0.1c-0.3,0-0.5-0.1-0.8-0.2c-0.2-0.1-0.3-0.2-0.5-0.3c-0.5-0.3-0.9-0.7-1.2-1.2c-0.4-0.5-0.6-1.1-0.8-1.7
			c-0.1-0.5-0.2-1.1-0.1-1.6c0.1-0.5,0.3-1,0.6-1.5c0.2-0.3,0.5-0.6,0.8-0.9c0.3-0.3,0.7-0.5,1.1-0.8c0.2-0.1,0.4-0.2,0.5-0.3
			l0.5-0.2c0.5-0.2,1-0.4,1.6-0.5c0.4,0,0.7,0,1.1,0c0.5,0,0.9,0.1,1.4,0.2c0.8,0.2,1.6,0.4,2.4,0.8c0.4,0.2,0.8,0.4,1.2,0.7
			c0.5,0.3,0.9,0.7,1.3,1c0.7,0.7,1.4,1.4,2,2.2c0.7,1,1.4,2.1,1.9,3.2c0.5,1,1,2.1,1.3,3.2h-0.4c-0.6,0.1-1.1,0.2-1.7,0.4
			c-0.5,0.2-0.9,0.5-1.3,0.8c-0.7,0.7-1,1.6-1,2.5c0,1.1,0.4,2.1,1.2,2.8c0.4,0.3,0.8,0.6,1.2,0.7c0.5,0.1,1.1,0.2,1.6,0.2h0.4
			c-0.3,1-1,1.9-1.9,2.5c-0.4,0.3-0.9,0.5-1.4,0.7c-0.5,0.2-1,0.2-1.5,0.2c-0.4,0-0.8-0.2-1.1-0.4c-0.3-0.2-0.5-0.5-0.7-0.8
			c-0.2-0.4-0.4-0.8-0.4-1.3c-0.1-0.6-0.1-1.1-0.1-1.7c-1-0.1-2.1,0.1-3.1,0.5c-0.9,0.4-1.6,1-2.2,1.8c-1.4,1.8-1.8,4.2-1.2,6.4
			c0.3,1,0.8,1.8,1.5,2.6c0.6,0.7,1.4,1.2,2.2,1.5c1,0.4,2.1,0.6,3.2,0.6c1.1,0,2.2-0.2,3.3-0.6c-0.5,0.6-0.9,1.3-1.1,2.1
			c-0.1,0.7,0,1.5,0.4,2.1c0.4,0.6,0.8,1.2,1.4,1.7l0.7,0.7c1,1,2,1.9,3,2.8c0.7,0.7,1.3,1.4,2,2.2h3.7c0.6-0.8,1.3-1.5,2-2.2
			c1-1,2-1.9,3-2.8c0.3-0.3,0.6-0.6,0.8-0.8c0.6-0.6,1-1.2,1.4-1.9c0.2-0.4,0.3-0.7,0.3-1.1c0-0.3,0-0.7-0.1-1
			c-0.1-0.4-0.3-0.8-0.6-1.2c-0.3-0.5-0.6-0.9-1-1.3c1,0.6,2.1,1,3.2,1.2c1.2,0.2,2.3,0.2,3.5-0.1c1-0.2,2-0.7,2.8-1.3
			c0.8-0.6,1.4-1.4,1.8-2.4c0.5-1.1,0.7-2.3,0.6-3.4c-0.1-1.2-0.5-2.3-1.1-3.3c-0.5-0.9-1.3-1.6-2.3-2.1c-1-0.5-2.2-0.7-3.3-0.6
			c0,0.6,0,1.1-0.1,1.7c-0.1,0.4-0.3,0.8-0.5,1.2c-0.2,0.3-0.4,0.6-0.7,0.8c-0.3,0.2-0.7,0.3-1.1,0.4c-0.5,0.1-1,0-1.5-0.2
			c-0.5-0.1-1-0.4-1.4-0.7c-0.9-0.6-1.6-1.5-1.9-2.5h0.6c0.5,0,1.1,0,1.6-0.2c0.5-0.1,0.9-0.4,1.2-0.7c0.8-0.7,1.2-1.8,1.2-2.8
			c0-0.9-0.3-1.8-1-2.5c-0.4-0.4-0.8-0.6-1.3-0.8c-0.5-0.2-1.1-0.4-1.7-0.4h-0.5c0.3-1.1,0.7-2.2,1.3-3.3c0.5-1.1,1.2-2.2,1.9-3.2
			c0.6-0.8,1.3-1.6,2.1-2.2c0.4-0.4,0.9-0.7,1.3-1c0.4-0.3,0.8-0.5,1.2-0.7c0.8-0.4,1.6-0.7,2.4-0.8c0.5-0.1,0.9-0.1,1.4-0.2
			c0.4,0,0.7,0,1.1,0c0.5,0.1,1.1,0.3,1.6,0.5l0.5,0.2c0.2,0.1,0.4,0.2,0.5,0.3c0.4,0.2,0.7,0.5,1.1,0.8c0.3,0.3,0.5,0.5,0.8,0.9
			c0.3,0.4,0.5,1,0.6,1.5c0.1,0.5,0,1.1-0.1,1.6c-0.2,0.6-0.4,1.2-0.8,1.7c-0.3,0.5-0.7,0.9-1.2,1.2c-0.2,0.1-0.3,0.2-0.5,0.3
			c-0.2,0.1-0.5,0.2-0.8,0.2c-0.5,0.1-1,0.1-1.5,0.1c-1.3-0.2-2.6-0.6-3.8-1.2c0.1,0.7,0.2,1.5,0.4,2.2c0.2,0.6,0.4,1.2,0.8,1.7
			c0.3,0.5,0.8,1,1.2,1.4c0.5,0.4,1,0.7,1.6,1c1.4,0.6,3,0.9,4.6,0.9c1.7,0,3.4-0.3,5-0.9c1.4-0.5,2.7-1.3,3.8-2.3
			c1-0.9,1.8-2,2.4-3.2c0.3-0.7,0.6-1.4,0.8-2.1c0.2-0.7,0.3-1.4,0.4-2.2C159.5,55.3,159.5,54.5,159.4,53.8L159.4,53.8z M123.8,15.1
			c0.9,0,1.8-0.4,2.5-1c-0.8-1.3-1.6-2.7-2.5-4c-0.8,1.3-1.7,2.6-2.5,3.9C122,14.7,122.9,15,123.8,15.1L123.8,15.1z"/>
		<path class="st0" d="M37.2,84.7c13.7,0,22.8-5.8,29.5-14L53.4,57.1c-3.8,4.3-8,8.1-15,8.1c-9.5,0-16.7-8.1-16.7-22.7V42
			c0-13.9,7.1-22.5,16.7-22.5c6.4,0,10.9,3.5,14.4,7.7l13.6-14.4C59.7,5,50.9,0,38,0C16.5,0,0,16.5,0,41.8v1.4
			C0,68.7,16.3,84.7,37.2,84.7z M69.8,83.3h15.8V22H69.8L69.8,83.3L69.8,83.3z M168.5,83.3h15.8V60.2L204,22h-17.2l-10.3,22.2
			L166.2,22h-17.4l19.7,38.3L168.5,83.3L168.5,83.3z M209.5,83.3h34.1c19.3,0,30.3-8.7,30.3-22.7v-0.5c0-10.8-6.2-16.2-15-19.4
			c6.8-3,12.2-8.7,12.2-18v-0.5c0-5.9-2-10.3-5.4-13.6c-4.8-4.9-12.4-7.3-22.2-7.3h-33.9L209.5,83.3L209.5,83.3z M250.2,26.7
			c0,5-3.8,7.6-10.2,7.6H230V19h10.4C246.7,19,250.3,21.7,250.2,26.7L250.2,26.7L250.2,26.7z M252.8,57.7v0.1c0,5-3.9,8-10.4,8H230
			v-16h12.3c6.9,0,10.5,3.2,10.5,8L252.8,57.7z M303.7,84.4c15,0,25-7.8,25-25.6V22h-15.9v37.5c0,7.3-3.5,10.6-9,10.6s-9-3.5-9-10.9
			V22h-15.9v37C278.9,76.4,288.7,84.3,303.7,84.4L303.7,84.4z M355.6,84.2c13.1,0,22.3-7.3,22.3-19.3v-0.2
			c0-10.4-7.3-15.2-18.9-18.9c-7.8-2.9-9.7-4.3-9.7-7v-0.1c0-2.3,2-4,5.6-4c5,0,10.1,2.4,14.3,5.6l8-11.7c-6.2-5-13.9-7.6-21.9-7.5
			c-13.4,0-21.9,7.8-21.9,18.9v0.3c0,11.1,8.1,15.3,19.7,19.3c7.2,2.5,9,4,9,6.5v0.1c0,2.6-2.2,4.5-6.4,4.5c-6,0-11.6-2.8-16.6-6.9
			l-8.4,11.5C337.6,81.2,346.5,84.4,355.6,84.2L355.6,84.2z M382.8,83.3h15.8V22h-15.8L382.8,83.3L382.8,83.3z M406.1,83.3h15.5
			V51.2l21.2,32.1h14V22h-15.5v30.9L420.9,22h-14.8L406.1,83.3L406.1,83.3z M464.2,83.3h42.6V69.5h-27V59h24V45.9h-24V35.9h26.6V22
			h-42.2L464.2,83.3L464.2,83.3z M533.1,84.2c13.1,0,22.3-7.3,22.3-19.3v-0.2c0-10.4-7.3-15.2-18.9-18.9c-7.8-2.9-9.7-4.3-9.7-7
			v-0.1c0-2.3,2-4,5.6-4c5,0,10.1,2.4,14.3,5.6l8-11.7c-6.2-5-13.9-7.6-21.9-7.5c-13.4,0-21.9,7.8-21.9,18.9v0.3
			c0,11.1,8.2,15.3,19.7,19.3c7.2,2.5,9,4,9,6.5v0.1c0,2.6-2.2,4.5-6.4,4.5c-6,0-11.7-2.8-16.6-6.9l-8.4,11.5
			C515.1,81.2,524,84.4,533.1,84.2L533.1,84.2z M580.5,84.2c13.1,0,22.3-7.3,22.3-19.3v-0.2c0-10.4-7.3-15.2-18.9-18.9
			c-7.8-2.9-9.7-4.3-9.7-7v-0.1c0-2.3,2-4,5.6-4c5,0,10.1,2.4,14.3,5.6l8-11.7c-6.2-5-13.9-7.6-21.9-7.5c-13.4,0-21.9,7.8-21.9,18.9
			v0.3c0,11.1,8.2,15.3,19.7,19.3c7.2,2.5,9,4,9,6.5v0.1c0,2.6-2.2,4.5-6.4,4.5c-6,0-11.6-2.8-16.6-6.9l-8.4,11.5
			C562.5,81.2,571.4,84.4,580.5,84.2L580.5,84.2z"/>
		<path class="st1" d="M129.8,10.6L129.8,10.6c0-3.6-2.4-6.5-6-6.5s-6,3-6,6.6l0,0c0,2,0.8,3.9,2.3,5.2l1.1-1.8
			c-0.9-0.9-1.4-2.2-1.4-3.4l0,0c0-2.5,1.6-4.5,3.8-4.5s3.9,2,3.9,4.5l0,0c0,1.3-0.5,2.6-1.4,3.5l1.1,1.8
			C128.9,14.6,129.8,12.7,129.8,10.6L129.8,10.6z M107.8,17.1l4-12.8h-2.1l-2.7,9.4l-2.8-9.5h-1.7l-2.8,9.5l-2.8-9.4h-2.2l4,12.8
			h1.7l2.8-9.1l2.8,9.1H107.8z M83.8,17h8.6v-2h-6.6v-3.4h5.7v-2h-5.7V6.3h6.5v-2h-8.5L83.8,17L83.8,17z M78.7,17h1.6V4.3h-2V13
			l-6.1-8.8h-1.9V17h2V8L78.7,17L78.7,17z"/>
		<path class="st1" d="M142.4,17l-3.1-4.8c1.7-0.5,2.8-2.1,2.7-3.9l0,0c0-1-0.3-2-1-2.7c-0.9-0.9-2.1-1.3-3.3-1.3h-5.1V17h2v-4.5
			h2.5L140,17H142.4z M137.6,10.6h-2.9V6.3h2.9c1.5,0,2.4,0.7,2.4,2.1l0,0c0,1.2-0.9,2.1-2.1,2.1C137.8,10.5,137.7,10.5,137.6,10.6
			L137.6,10.6z"/>
		<polygon class="st1" points="145.3,17 153.3,17 153.3,14.9 147.3,14.9 147.3,4.3 145.3,4.3 145.3,17 		"/>
		<polygon class="st1" points="156.1,17 164.7,17 164.7,15 158.2,15 158.2,11.6 163.9,11.6 163.9,9.6 158.2,9.6 158.2,6.3 
			164.6,6.3 164.6,4.3 156.1,4.3 156.1,17 		"/>
		<path class="st1" d="M177.4,17h2.1l-5-12.8h-1.9l-5,12.8h2.1l1.2-3.1h5.4L177.4,17z M175.5,12h-3.9l2-5.1L175.5,12L175.5,12z"/>
		<polygon class="st1" points="190.7,17 192.4,17 192.4,4.3 190.4,4.3 190.4,13.1 184.3,4.3 182.4,4.3 182.4,17 184.4,17 184.4,7.9 
			190.7,17 		"/>
		<path class="st1" d="M197.7,7.6L197.7,7.6c0-0.8,0.7-1.5,1.9-1.5c1.2,0.1,2.3,0.5,3.1,1.3l1.1-1.7c-1.1-1-2.6-1.6-4.1-1.6
			c-2-0.1-3.8,1.4-3.9,3.4c0,0.1,0,0.2,0,0.3l0,0c0,2.3,1.4,3.1,3.8,3.8c2.1,0.5,2.6,1,2.6,1.9l0,0c0,0.9-0.8,1.6-2,1.6
			c-1.4,0-2.7-0.6-3.6-1.7l-1.2,1.6c1.3,1.3,3,2,4.8,2c2.4,0,4.1-1.4,4.1-3.8l0,0c0-2.1-1.2-3.1-3.6-3.7
			C198.3,9,197.8,8.6,197.7,7.6L197.7,7.6z"/>
	</g>
</g>
</svg>
