<?xml version="1.0" encoding="utf-8"?>
<!-- Generator: Adobe Illustrator 24.0.1, SVG Export Plug-In . SVG Version: 6.00 Build 0)  -->
<svg version="1.1" id="Layer_1" xmlns="http://www.w3.org/2000/svg" xmlns:xlink="http://www.w3.org/1999/xlink" x="0px" y="0px"
	 width="430.5px" height="109px" viewBox="0 0 430.5 109" style="enable-background:new 0 0 430.5 109;" xml:space="preserve">
<style type="text/css">
	.st0{fill:#ED1C24;}
</style>
<title>PET</title>
<g id="Layer_2_1_">
	<g id="PET">
		<path class="st0" d="M0,88.6h19.4V62.2h14.7c19.7,0,35.6-10.6,35.6-30.9v-0.3c0-18-12.7-30.4-33.6-30.4H0V88.6L0,88.6z M19.4,45
			V18.1h15C44,18.1,50,22.8,50,31.4v0.3C50,39.2,44.4,45,34.7,45H19.4z M104.5,90.1c12.2,0,21.2-4.8,27.5-12.6l-10.9-9.7
			c-5.3,4.9-9.9,6.9-16.3,6.9c-8.6,0-14.6-4.5-16.5-13.2h46.9c0.1-1.8,0.3-3.5,0.3-5c0-19.1-10.3-36.6-32.8-36.6
			c-19.6,0-33.3,15.8-33.3,35v0.3C69.3,75.9,84.3,90.1,104.5,90.1z M88,49.7c1.5-8.7,6.7-14.3,14.6-14.3s13.1,5.8,14.2,14.3H88z
			 M163.6,89.8c5.3,0.1,10.5-1.2,15.1-3.9V70.5c-2.9,1.6-6.1,2.4-9.4,2.4c-4.3,0-6.2-2.1-6.2-6.5V37.6h15.8V21.2H163V4h-19.1v17.2
			h-8.1v16.3h8.1v31.9C143.9,85.1,151.8,89.8,163.6,89.8L163.6,89.8z M198.7,88.6h19.7l8-19.7h37.2l8,19.7H292L254.3,0h-17.8
			L198.7,88.6L198.7,88.6z M233.4,51.8l11.7-28.5l11.7,28.5H233.4z M321.8,109c13.1,0,22.8-2.8,29-9c5.7-5.7,8.5-14.4,8.5-26.5V21.2
			h-19.1V30c-5.1-5.6-11.3-10-21.7-10c-15.5,0-29.9,11.3-29.9,31.4v0.3c0,20,14.2,31.4,29.9,31.4c10.2,0,16.3-4.2,22-10.9v3.3
			c0,12.1-6.2,18.3-19.2,18.3c-8,0.1-15.9-2.1-22.8-6.2l-6.5,14.3C301.2,106.7,311.4,109.1,321.8,109L321.8,109z M324.1,67.3
			c-9.3,0-16.3-6.3-16.3-15.6v-0.3c0-9.2,7-15.6,16.3-15.6s16.5,6.4,16.5,15.6v0.3C340.5,60.9,333.4,67.3,324.1,67.3z M399.6,90.1
			c12.2,0,21.3-4.8,27.5-12.6l-10.9-9.7c-5.3,4.9-9.9,6.9-16.4,6.9c-8.5,0-14.6-4.5-16.5-13.2h46.9c0.1-1.8,0.3-3.5,0.3-5
			c0-19.1-10.3-36.6-32.8-36.6c-19.6,0-33.3,15.8-33.3,35.1v0.3C364.4,75.9,379.4,90.1,399.6,90.1L399.6,90.1z M383.1,49.7
			c1.5-8.7,6.7-14.3,14.6-14.3s13.1,5.8,14.2,14.3H383.1z"/>
	</g>
</g>
</svg>
