<?xml version="1.0" encoding="utf-8"?>
<!-- Generator: Adobe Illustrator 24.0.1, SVG Export Plug-In . SVG Version: 6.00 Build 0)  -->
<svg version="1.1" id="Layer_1" xmlns="http://www.w3.org/2000/svg" xmlns:xlink="http://www.w3.org/1999/xlink" x="0px" y="0px"
	 width="602.9px" height="82.7px" viewBox="0 0 602.9 82.7" style="enable-background:new 0 0 602.9 82.7;" xml:space="preserve">
<style type="text/css">
	.st0{fill:#636466;}
	.st1{fill:#0083CA;}
</style>
<title>RBJ</title>
<g id="Layer_2_1_">
	<g id="RBJ">
		<path class="st0" d="M145.7,19.7h2.8v-6.3h3.6l4,6.3h3.4l-4.4-6.8c2.4-0.7,4-3,3.8-5.4l0,0c0-1.4-0.4-2.8-1.3-3.9
			c-1.2-1.2-2.9-1.9-4.7-1.8h-7.2L145.7,19.7L145.7,19.7z M148.5,10.7v-6h4.1c2.1,0,3.4,1,3.4,3v0.1c0,1.8-1.3,3-3.3,3L148.5,10.7z
			 M171,20c5,0,8.5-4.2,8.5-9.3v0c0-5-3.5-9.2-8.4-9.2s-8.5,4.2-8.5,9.3v0.1C162.6,15.8,166,20,171,20L171,20z M171,17.1
			c-3.2,0-5.5-2.9-5.5-6.4v0c0-3.5,2.2-6.3,5.4-6.3s5.5,2.9,5.5,6.4v0.1C176.4,14.3,174.2,17.1,171,17.1L171,17.1z M191.4,20
			c2.6,0.1,5-1.1,6.6-3.1l-1.8-2c-1.4,1.4-2.6,2.3-4.6,2.3c-3.1,0-5.3-2.9-5.3-6.4v-0.1c0-3.5,2.3-6.3,5.3-6.3
			c1.7,0.1,3.4,0.9,4.5,2.2l1.8-2.3c-1.6-1.8-3.9-2.9-6.3-2.8c-4.9,0-8.3,4.2-8.3,9.3v0.1C183.2,16,186.7,20,191.4,20L191.4,20z
			 M202,19.7h2.8v-7.6h7.7v7.6h2.8v-18h-2.8v7.5h-7.8V1.8H202V19.7L202,19.7z M220.8,19.7h12.1v-2.8h-9.3v-4.8h8.1V9.3h-8.1V4.6h9.1
			V1.8h-12L220.8,19.7L220.8,19.7z M243.2,20c3.4,0,5.8-2,5.8-5.4v-0.1c0-3-1.8-4.3-5.2-5.3c-3.1-0.8-3.9-1.4-3.9-2.8l0,0
			c0-1.2,1-2.1,2.6-2.1c1.6,0.1,3.2,0.7,4.4,1.8l1.5-2.4c-1.6-1.5-3.7-2.3-5.9-2.3c-3.2,0-5.5,2.1-5.5,5.2l0,0
			c0,3.3,1.9,4.4,5.4,5.4c3,0.8,3.6,1.5,3.6,2.8l0,0c0,1.3-1.1,2.3-2.9,2.3c-2,0-3.8-0.9-5.1-2.3l-1.7,2.3
			C238.2,18.9,240.6,20,243.2,20L243.2,20z M257.3,19.7h2.9v-15h5.1V1.8h-13.1v2.9h5.1L257.3,19.7L257.3,19.7z M269.2,19.7h12.1
			v-2.8H272v-4.8h8.1V9.3H272V4.6h9.1V1.8h-12L269.2,19.7L269.2,19.7z M285.9,19.7h2.8v-6.3h3.6l4,6.3h3.4l-4.4-6.8
			c2.4-0.7,4-3,3.8-5.4l0,0c0-1.4-0.4-2.8-1.3-3.9c-1.2-1.2-2.9-1.9-4.7-1.8h-7.2L285.9,19.7L285.9,19.7z M288.7,10.7v-6h4.1
			c2.1,0,3.4,1,3.4,3v0.1c0,1.8-1.3,3-3.3,3L288.7,10.7z"/>
		<path class="st1" d="M329.3,82.7c6.8,0,12.2-2.2,16.1-6.3c4.2-4.4,6.3-10.7,6.3-19.4V0h-18.2v55.8c0,6.2-2.7,8.9-6.3,8.9
			c-3.1,0-5.3-1.7-7.4-4.1l-8.1,14.7C316.3,80,322.6,82.7,329.3,82.7z M378.2,82.6c12.3,0,20.6-10.1,20.6-27.1v-2.3
			c0-16.9-8.2-27-20.5-27s-20.6,10-20.6,27v2.3C357.7,72.5,365.9,82.5,378.2,82.6L378.2,82.6z M378.3,70.9c-4.5,0-7.6-4.7-7.6-15.8
			v-1.6c0-11.1,3.1-15.7,7.5-15.7s7.5,4.6,7.5,15.8v1.6C385.7,66.3,382.7,70.9,378.3,70.9z M421.9,82.5c11,0,18.6-6.1,18.6-20V27.2
			h-12.7v36.1c0,5.1-2.3,7.5-5.7,7.5s-5.7-2.4-5.7-7.5v-36h-12.9v35.4C403.5,76.3,411,82.5,421.9,82.5L421.9,82.5z M446.4,81.5h12.7
			V64.2h3l7.3,17.3h14.1l-9.2-20.7c4.7-2.8,8-7.4,8-15.2v-0.5c0-5.7-1.6-9.9-4.6-12.9c-3.3-3.3-8.5-5-14.8-5h-16.5L446.4,81.5
			L446.4,81.5z M459.1,53.8V38.4h3.3c4.3,0,7,2.4,7,7.5v0.3c0,4.8-2.5,7.6-6.9,7.6L459.1,53.8z M487.1,81.5h12.4v-27l13.9,27h11.5
			V27.2h-12.4V53l-13.3-25.8h-12.1L487.1,81.5L487.1,81.5z M528.1,81.5h12.7l2.3-9.9h12.6l2.3,9.9h13.1L556.5,27h-13.8L528.1,81.5
			L528.1,81.5z M545.6,61.2l3.8-16.6l3.8,16.6L545.6,61.2z M574.3,81.6h28.6V69.7h-15.8V27.2h-12.8V81.6z"/>
		<path class="st1" d="M0,81.6h23.7c17.9,0,28-8.9,28-22.7V58c0-10.3-5.8-15.5-12.8-18.5c6.8-3.3,11-10.4,10.7-17.9V21
			c0-6.1-1.8-10.6-5-14c-4.7-4.9-12.2-7-21-7H0V81.6z M31.8,24.9c0,5.1-3.4,8.2-9,8.2h-5V16.8h5.2c5.4,0,8.8,2.7,8.8,8L31.8,24.9
			L31.8,24.9z M33.5,56.3v0.1c0,5.1-3.7,8.4-9.4,8.4h-6.2V47.9H24C30,47.9,33.5,51.3,33.5,56.3L33.5,56.3z M74.5,82.5
			c11,0,18.6-6.1,18.6-20V27.2H80.3v36.1c0,5.1-2.3,7.5-5.7,7.5S69,68.3,69,63.2v-36H56.1v35.4C56.1,76.3,63.6,82.5,74.5,82.5
			L74.5,82.5z M113.6,82.2c9.9,0,17.4-6.7,17.4-16.5v-0.3c0-8-5-12.4-12.9-16.6c-6.2-3.4-7.8-4.9-7.8-7.1v-0.1
			c0-2.1,1.8-3.7,4.4-3.7c4,0,7.5,2.5,9.8,4.5l6.5-10c-4.4-4-10.2-6.1-16.1-6.1c-10.4,0-17.5,6.5-17.5,16.2V43
			c0,8.4,5.4,12.7,14.1,17.2c5,2.7,6.5,4.2,6.5,6.3c0,2.3-1.6,4.3-4.9,4.3c-4.2,0-8.3-2.9-11.7-5.7l-6.3,10.3
			C100.3,79.8,106.9,82.3,113.6,82.2L113.6,82.2z M135.6,81.5h12.7V27.2h-12.8L135.6,81.5L135.6,81.5z M154.8,81.5h12.4v-27l13.9,27
			h11.5V27.2h-12.5V53l-13.3-25.8h-12.1L154.8,81.5L154.8,81.5z M198.8,81.5h30.7V69.9h-17.9V59.8h15.8V48.5h-15.8v-9.7h17.6V27.2
			h-30.4L198.8,81.5L198.8,81.5z M249.2,82.2c9.9,0,17.4-6.7,17.4-16.5v-0.3c0-8-5-12.4-12.9-16.6c-6.2-3.4-7.7-4.8-7.7-7.1v-0.1
			c0-2.1,1.8-3.7,4.4-3.7c4,0,7.5,2.5,9.8,4.5l6.5-10c-4.4-4-10.2-6.1-16.1-6.1c-10.4,0-17.5,6.5-17.5,16.2V43
			c0,8.4,5.4,12.7,14.1,17.2c5,2.7,6.5,4.2,6.5,6.3c0,2.3-1.6,4.3-4.9,4.3c-4.2,0-8.3-2.9-11.6-5.7l-6.3,10.3
			C235.9,79.8,242.5,82.3,249.2,82.2L249.2,82.2z M285.1,82.2c9.9,0,17.4-6.7,17.4-16.5v-0.3c0-8-5-12.4-12.9-16.6
			c-6.2-3.4-7.8-4.9-7.8-7.1v-0.1c0-2.1,1.8-3.7,4.4-3.7c4,0,7.5,2.5,9.8,4.5l6.5-10c-4.4-4-10.2-6.1-16.1-6.1
			C276,26.5,269,33,269,42.7V43c0,8.4,5.4,12.7,14.1,17.2c5,2.7,6.5,4.2,6.5,6.3c0,2.3-1.6,4.3-4.9,4.3c-4.2,0-8.3-2.9-11.6-5.7
			l-6.3,10.3C271.9,79.8,278.4,82.3,285.1,82.2L285.1,82.2z"/>
	</g>
</g>
</svg>
