<?xml version="1.0" encoding="utf-8"?>
<!-- Generator: Adobe Illustrator 24.0.1, SVG Export Plug-In . SVG Version: 6.00 Build 0)  -->
<svg version="1.1" id="Layer_1" xmlns="http://www.w3.org/2000/svg" xmlns:xlink="http://www.w3.org/1999/xlink" x="0px" y="0px"
	 width="602.9px" height="137.1px" viewBox="0 0 602.9 137.1" style="enable-background:new 0 0 602.9 137.1;" xml:space="preserve"
	>
<style type="text/css">
	.st0{fill:#B1B3B6;}
	.st1{fill:#636466;}
</style>
<title>WIDR</title>
<g id="Layer_2_1_">
	<g id="WIDR">
		<path class="st0" d="M103.4,47.9h7.7V8.1h13.7V0.3H89.7v7.8h13.7C103.5,8.1,103.5,47.9,103.4,47.9z M130.9,47.9h7.6V27.9h20.6
			v20.1h7.6V0.3h-7.6v19.8h-20.6V0.3h-7.6L130.9,47.9L130.9,47.9z M177.1,47.9h32.4v-7.5h-24.8V27.7h21.7v-7.5h-21.7V7.8h24.5V0.3
			h-32.1V47.9z M236.4,47.9h16.1c13.6,0,23-10.4,23-23.8V24c0-13.4-9.4-23.7-23-23.7h-16.1L236.4,47.9L236.4,47.9z M252.5,8
			c9.1,0,15,6.9,15,16.2v0.1c0,9.3-5.9,16-15,16H244V8H252.5z M276.8,48h7.8l4.4-11.6h20.5l4.4,11.5h8L302.9,0h-7L276.8,48L276.8,48
			z M291.8,29.1l7.4-19l7.5,19H291.8z M327.9,48h7.6V0.3h-7.6V48L327.9,48z M345.9,48h30.4v-7.7h-22.7v-40h-7.6L345.9,48L345.9,48z
			 M388,48h7.7V29l17.2-28.7h-8.7l-12.2,21l-12.1-21h-9L388,29.2L388,48L388,48z"/>
		<path class="st1" d="M0,135.6h23.9v-28.7h10.6l17.4,28.7h27.5l-20.6-33.1c10.7-5,17.7-14.6,17.7-29.3V73c0-9.3-2.6-16.5-7.6-22.1
			C63.1,44.5,54,40.7,40.8,40.7H0V135.6z M23.9,86.3V63.4h15.8c7.9,0,12.9,3.8,12.9,11.4V75c0,6.9-4.8,11.2-12.8,11.2L23.9,86.3z
			 M86,135.6h62.2v-18.1H107v-12.2h36.8V88.6H107V76.9h40.6v-18H86V135.6L86,135.6z M158,135.6h21.3v-21.9h10.6
			c19,0,32.9-9.5,32.9-27.7v-0.2c0-16.9-12.5-26.8-31.8-26.8h-33L158,135.6L158,135.6z M179.2,97V76.8h10.1c7.6,0,12.3,3.4,12.3,10
			V87c0,6-4.7,10.1-12.2,10.1L179.2,97z M267.2,137.1c23.7,0,41.4-17.9,41.4-39.9V97c0-22-17.5-39.7-41.2-39.7S226,75.2,226,97.3
			v0.2C226,119.5,243.5,137.1,267.2,137.1L267.2,137.1z M267.5,117.9c-11.7,0-19.7-9.7-19.7-20.7V97c0-11.1,7.8-20.5,19.5-20.5
			c11.7,0,19.6,9.5,19.6,20.7v0.2C286.8,108.5,279.1,117.9,267.5,117.9L267.5,117.9z M316.8,135.6H338v-23.2h9.4l15.5,23.2h24.4
			L369,108.9c9.5-4.1,15.8-11.8,15.8-23.7V85c0-7.6-2.3-13.4-6.8-17.9c-5.1-5.2-13.3-8.2-25-8.2h-36.2L316.8,135.6L316.8,135.6z
			 M338,95.7V77.2h14c7,0,11.5,3.1,11.5,9.2v0.2c0,5.6-4.3,9.1-11.4,9.1H338z M411.1,135.6h21.3V77.5h23V58.9h-67.1v18.6h22.9
			L411.1,135.6L411.1,135.6z M460.3,135.6h62.2v-18.1h-41.2v-12.2h36.8V88.6h-36.8V76.9H522v-18h-61.7L460.3,135.6L460.3,135.6z
			 M532.3,135.6h21.3v-23.2h9.4l15.5,23.2h24.4l-18.3-26.7c9.5-4.1,15.8-11.8,15.8-23.7V85c0-7.6-2.3-13.4-6.8-17.9
			c-5.2-5.2-13.3-8.2-25-8.2h-36.3L532.3,135.6L532.3,135.6z M553.6,95.7V77.2h14c7,0,11.5,3.1,11.5,9.2v0.2c0,5.6-4.3,9.1-11.4,9.1
			H553.6z"/>
	</g>
</g>
</svg>
