<?xml version="1.0" encoding="utf-8"?>
<!-- Generator: Adobe Illustrator 24.0.1, SVG Export Plug-In . SVG Version: 6.00 Build 0)  -->
<svg version="1.1" id="Layer_1" xmlns="http://www.w3.org/2000/svg" xmlns:xlink="http://www.w3.org/1999/xlink" x="0px" y="0px"
	 width="602.9px" height="87.9px" viewBox="0 0 602.9 87.9" style="enable-background:new 0 0 602.9 87.9;" xml:space="preserve">
<style type="text/css">
	.st0{fill:#ED1C24;}
	.st1{fill:#636466;}
</style>
<title>WLJ</title>
<g id="Layer_2_1_">
	<g id="WLJ">
		<path class="st0" d="M0,86.5h59.3V68.3H18.1V0H0V86.5z M83.1,87.7c8.7,0,14.7-3.2,19.1-8v6.8h17.3V49.8c0-8.5-2.1-15.4-6.8-20.1
			c-4.5-4.5-11.6-7.1-21.3-7.1c-8.5-0.2-16.8,1.5-24.5,5.1l4.5,13.7c5.5-2.3,11.5-3.4,17.4-3.4c9,0,13.6,4.1,13.6,11.5v1.1
			c-5-1.8-10.2-2.6-15.4-2.6c-15,0-25.5,6.4-25.5,20.2v0.2C61.4,80.8,71.2,87.7,83.1,87.7z M88.5,75.3c-5.8,0-9.8-2.8-9.8-7.7v-0.2
			c0-5.7,4.7-8.7,12.4-8.7c3.9,0,7.8,0.8,11.4,2.3v3.2C102.6,70.7,96.9,75.3,88.5,75.3L88.5,75.3z M138.6,86.9h16L167,48.2
			l12.1,38.8h16.1L215,23.3h-17.8l-10.3,38.4l-12-38.7h-15.4l-11.9,38.6l-10.1-38.3h-18.2L138.6,86.9z M244.6,87.8
			c9,0,16.4-2.8,21.5-8.4s7.8-13.5,7.8-24.3V0h-18.6v54.2c0,10.5-4.2,15-11.1,15c-5.8,0-10.4-3.4-15.1-9.1l-11.4,14
			C223.3,81.5,231.8,87.7,244.6,87.8L244.6,87.8z M313.2,87.9c19.7,0,34.3-14.7,34.3-32.9v-0.2c0-18.1-14.5-32.7-34.1-32.7
			S279.2,36.8,279.2,55v0.2C279.2,73.4,293.7,87.9,313.2,87.9L313.2,87.9z M313.5,72.4c-9.9,0-16.6-8.1-16.6-17.5v-0.2
			c0-9.3,6.1-17.2,16.4-17.2c9.9,0,16.6,8.1,16.6,17.5v0.2C329.9,64.5,323.7,72.4,313.5,72.4z M373.2,87.7c9.1,0,14.4-4.8,18.5-10.1
			v9h17.9V23.3h-17.9v35.3c0,8.5-4.4,12.9-11.2,12.9s-10.8-4.4-10.8-12.9V23.3h-17.9v40.9C351.8,78.7,359.7,87.7,373.2,87.7
			L373.2,87.7z M417.4,86.5h17.9V63.1c0-15.1,7.3-22.3,19.2-22.3h0.9V22.1c-10.6-0.5-16.5,5.2-20.2,13.9V23.3h-17.9L417.4,86.5
			L417.4,86.5z M458.4,86.5h17.9V51.2c0-8.5,4.4-12.8,11.2-12.8s10.9,4.4,10.9,12.8v35.3h17.9V45.6c0-14.5-7.9-23.5-21.5-23.5
			c-9.1,0-14.4,4.8-18.5,10.1v-9h-17.9L458.4,86.5L458.4,86.5z M541.5,87.7c8.7,0,14.7-3.2,19.1-8v6.8H578V49.8
			c0-8.5-2.1-15.4-6.8-20.1c-4.5-4.5-11.5-7.1-21.3-7.1c-8.5-0.2-16.8,1.5-24.5,5.1l4.5,13.7c5.5-2.3,11.5-3.4,17.4-3.4
			c9,0,13.6,4.1,13.6,11.5v1.1c-5-1.8-10.2-2.6-15.4-2.6c-15,0-25.5,6.4-25.5,20.2v0.2C519.9,80.8,529.7,87.7,541.5,87.7L541.5,87.7
			z M547,75.3c-5.8,0-9.8-2.8-9.8-7.7v-0.2c0-5.7,4.7-8.7,12.4-8.7c3.9,0,7.8,0.8,11.4,2.4v3.2C561,70.7,555.3,75.3,547,75.3z
			 M585.7,86.5h17.2V3.9h-17.2C585.7,3.9,585.7,86.5,585.7,86.5z"/>
		<path class="st1" d="M64.4,16.1h2.4l3.8-11.3l3.9,11.3h2.4l5.4-15.8h-2.9l-3.8,11.6L71.9,0.2h-2.3l-3.9,11.7L61.9,0.3h-3
			L64.4,16.1L64.4,16.1z M87.8,16h2.8V0.3h-2.8V16z M102.7,16.2c3.3,0,5.6-1.7,5.6-4.7l0,0c0-2.6-1.7-3.8-5-4.6
			c-3-0.7-3.8-1.3-3.8-2.5l0,0c0-1,0.9-1.9,2.6-1.9c1.6,0.1,3.1,0.6,4.3,1.6l1.5-2.2c-1.6-1.3-3.6-2-5.7-2c-3.1,0-5.4,1.9-5.4,4.6
			l0,0c0,2.9,1.9,3.9,5.2,4.7c2.9,0.7,3.5,1.3,3.5,2.4l0,0c0,1.2-1.1,2-2.8,2c-1.9,0-3.6-0.7-5-2l-1.7,2
			C97.9,15.3,100.3,16.2,102.7,16.2L102.7,16.2z M121.3,16.2c2.4,0.1,4.8-0.9,6.4-2.8l-1.7-1.8c-1.2,1.3-2.8,2-4.5,2
			c-2.9-0.1-5.2-2.5-5.2-5.4c0-0.1,0-0.1,0-0.2l0,0c-0.1-2.9,2.1-5.4,5-5.5c0,0,0.1,0,0.1,0c1.7,0.1,3.3,0.8,4.4,2l1.8-2
			c-1.6-1.7-3.9-2.6-6.2-2.6c-4.4-0.1-8,3.4-8.1,7.8c0,0.1,0,0.2,0,0.3l0,0c-0.1,4.4,3.4,8,7.7,8.1
			C121.2,16.2,121.3,16.2,121.3,16.2L121.3,16.2z M140.1,16.2c4.4,0.1,8.1-3.3,8.2-7.8c0-0.1,0-0.2,0-0.4l0,0c0.1-4.4-3.5-8-7.9-8.1
			c-0.1,0-0.2,0-0.3,0c-4.4-0.1-8.1,3.3-8.2,7.8c0,0.1,0,0.2,0,0.4l0,0c0,4.4,3.5,8,7.9,8.1C139.9,16.2,140,16.2,140.1,16.2
			L140.1,16.2z M140.1,13.7c-3,0-5.3-2.4-5.3-5.4c0-0.1,0-0.1,0-0.2l0,0c-0.1-2.9,2.1-5.4,5.1-5.5c0.1,0,0.2,0,0.2,0
			c3,0,5.4,2.4,5.3,5.4c0,0.1,0,0.1,0,0.2l0,0c0.1,2.9-2.1,5.4-5.1,5.5C140.3,13.7,140.2,13.7,140.1,13.7L140.1,13.7z M154.1,16h2.7
			V4.8l8.7,11.2h2.3V0.3h-2.7v10.9l-8.4-10.9h-2.6L154.1,16L154.1,16z M179.8,16.2c3.3,0,5.6-1.7,5.6-4.7l0,0c0-2.6-1.7-3.8-5-4.6
			c-3-0.7-3.8-1.3-3.8-2.5l0,0c0-1,0.9-1.9,2.6-1.9c1.6,0.1,3.1,0.6,4.3,1.6L185,2c-1.6-1.3-3.6-2-5.7-2c-3.1,0-5.4,1.9-5.4,4.6l0,0
			c0,2.9,1.9,3.9,5.2,4.7c2.9,0.7,3.6,1.3,3.6,2.4l0,0c0,1.2-1.1,2-2.8,2c-1.8,0-3.6-0.7-4.9-2l-1.7,2
			C175.1,15.3,177.4,16.2,179.8,16.2L179.8,16.2z M191.3,16h2.8V0.3h-2.8V16z M200.8,16h2.7V4.8l8.7,11.2h2.3V0.3h-2.7v10.9
			l-8.4-10.9h-2.6L200.8,16L200.8,16z"/>
	</g>
</g>
</svg>
